<svg xmlns="http://www.w3.org/2000/svg" viewBox="0 0 62.94 24.45">
    <defs>
        <style>
            .cls-1 {
                fill: #ec008c;
            }

            .cls-2 {
                fill: #fff;
            }
        </style>
    </defs>
    <g id="Filter_Overlay" data-name="Filter Overlay">
        <rect class="cls-1" width="62.94" height="24.45" rx="12.22" />
        <path class="cls-2"
            d="M18.28,5.72h2.79l5.21,13H23.49l-1.25-3.42H17l-1.25,3.42H13.08Zm3.24,7.56L19.59,8.05l-1.91,5.23Z" />
        <path class="cls-2"
            d="M28.24,5.72H32.5A5.3,5.3,0,0,1,36,6.82a3.77,3.77,0,0,1,1.3,3,3.8,3.8,0,0,1-.57,2.06,4.15,4.15,0,0,1-1.62,1.48l3.5,5.33h-3l-2.81-4.67-.49,0H30.76v4.64H28.24ZM30.76,12h1.29q2.7,0,2.7-2.1a1.81,1.81,0,0,0-.66-1.53,3.12,3.12,0,0,0-2-.53H30.76Z" />
        <path class="cls-2" d="M43,7.88h-4.2V5.72h11V7.88h-4.2V18.73H43Z" />
    </g>
</svg>