<?xml version="1.0" encoding="utf-8"?>
<!-- Generator: Adobe Illustrator 24.3.0, SVG Export Plug-In . SVG Version: 6.00 Build 0)  -->
<svg version="1.1" id="Layer_1" xmlns="http://www.w3.org/2000/svg" xmlns:xlink="http://www.w3.org/1999/xlink" x="0px" y="0px"
	 viewBox="0 0 93.34 24.45" style="enable-background:new 0 0 93.34 24.45;" xml:space="preserve">
	<style>
		.st0{fill:#ABABAB;}
		.st1{fill:#FFFFFF;}
	</style>
	<g>
		<g>
			<path class="st0" d="M81.24,24.45H12.03c-6.75,0-12.22-5.47-12.22-12.22l0,0C-0.19,5.47,5.28,0,12.03,0h69.21
				c6.75,0,12.22,5.47,12.22,12.22l0,0C93.46,18.97,87.99,24.45,81.24,24.45z"/>
			<g>
				<g>
					<g>
						<path class="st1" d="M15.86,5.72h8.65v2.19h-6.1v3.12h5.39v2.17h-5.39v3.34h6.34v2.19h-8.89C15.86,18.73,15.86,5.72,15.86,5.72
							z"/>
						<path class="st1" d="M26.3,5.72h2.91l3.5,10.17l3.48-10.17h2.83l-4.98,13.01h-2.77L26.3,5.72z"/>
						<path class="st1" d="M40.92,5.72h8.65v2.19h-6.1v3.12h5.39v2.17h-5.39v3.34h6.34v2.19h-8.89C40.92,18.73,40.92,5.72,40.92,5.72
							z"/>
						<path class="st1" d="M52.5,5.72h2.34l6.86,9.04V5.72h2.5v13.01h-2.34l-6.86-9v9h-2.5C52.5,18.73,52.5,5.72,52.5,5.72z"/>
						<path class="st1" d="M70.57,7.87h-4.2V5.72h11.04v2.16h-4.2v10.85h-2.64C70.57,18.73,70.57,7.87,70.57,7.87z"/>
					</g>
				</g>
			</g>
		</g>
	</g>
</svg>
