<?xml version="1.0" encoding="utf-8"?>
<!-- Generator: Adobe Illustrator 25.0.0, SVG Export Plug-In . SVG Version: 6.00 Build 0)  -->
<svg version="1.1" xmlns="http://www.w3.org/2000/svg" xmlns:xlink="http://www.w3.org/1999/xlink" x="0px" y="0px"
	 viewBox="0 0 623.6 470.5" style="enable-background:new 0 0 623.6 470.5;" xml:space="preserve">
<style type="text/css">
	.st0{fill-rule:evenodd;clip-rule:evenodd;fill:none;stroke:#E7EA65;stroke-miterlimit:10;}
	.st1{display:none;}
	.st2{display:inline;fill:none;stroke:#D860B4;stroke-miterlimit:10;}
	.st3{fill:none;stroke:#D07C40;stroke-miterlimit:10;}
	.st4{fill:none;stroke:#4DB266;stroke-miterlimit:10;}
	.st5{fill-rule:evenodd;clip-rule:evenodd;fill:none;stroke:#DBDBDB;stroke-miterlimit:10;}
	.st6{fill:none;stroke:#D35F6D;stroke-miterlimit:10;}
	.st7{fill-rule:evenodd;clip-rule:evenodd;fill:#4F989E;}
</style>
<g id="Layer_8">
	<g>
		<path class="st0" d="M385.2,276.1c-1.2,4.3-5.6,17.7-8.8,27.2c-7.5,6.6-10.7-5.6-7-11c3.6-5.2-2.9-13.1,5.6-13.9
			c0.3-1.1,0.5,0.6,1,0.3c-1-0.7,0.4-1.6,1.1-2c1,2,0.1-0.8,1.4-1.5c-0.6,2.2,0.7-1,1.2,0.2c0.3-0.5-0.4-0.4-0.6-0.7
			c0.2-1.3,1.1-0.6,0.5-2.4c0.6-0.9,0.8,1.2,1.4-0.6c1.7-0.6,0.6-2.7,1.8-3.6C384,268,385.1,273.2,385.2,276.1z"/>
		<path class="st0" d="M387.8,205.4c-1.8,11.8-14.7,24.3-22.4,33.7c-2.5,2.4-5.9,7.3-6.5,12.7c2.5,2.5,0.2,5.2,1.5,8.1
			c0,2.4,2,2.9,2.4,4.7c-1.3,4.3,1,9.7-0.4,12.1c-0.3,3.7-5.8,5.9-9,7.5c0.5,1.2-4.4,6-5.5,4.8c1.2,0.6-0.4,2.3,0.9,3
			c1.5,6.1,2.7,10.3-5.6,13.8c1,8.1-10.9,23-20.3,23.3c-4.4-1.6-8.6,3.2-12.3,0.7c0.2-2.1-1.8,1.5-0.8-1.4c-0.9-2.6-1.5-1.9-0.1-4.1
			c-1.1-6.3-5.7-10.8-7.3-16.6c-0.7-7.7-2.2-14.7-6.3-21.4c-5.2-8,5.4-15.7,3.1-23c-2.1-3.4,0-3.5-0.7-6.4c-0.1-1.6-3.5-5.4-1.2-5.6
			c3-1.5-2.3,1.3-1.3-1.9c-4.6-8.6-11.5-12.2-5.2-15.4c-3.4-0.4,0.9-2.5-1.5-2.7c1.8-2.6,0.9-6.3,0.8-8.2c-1,0.9-1.5,0.3-2-1.5
			c-0.9,0.7-0.5-0.1-1.5-0.8c0.8,1.8-2.2,0.8-2.1,1c-1.2-0.6,0.1,1.2-1.1-0.3c0.5,1.4-0.4,0.5-0.3-0.3c-0.1,0.5,0.1,2.2-0.1,0.5
			c-0.1,0.9-1.7,1.4-2.7-0.3c-1-1.2,0.8-2.6-0.6-1.9c-0.6-0.5,0.7-0.2,0.1-0.9c-0.8,1.1-0.6-1.4-2.4-1.8c-0.7-0.3-1.5,0.1-2.2-0.2
			c1.9-0.2,0-0.8,0,0.2c-5.1-0.3-8.4,3.1-13.2,4.4c-4.9-2-5.2-1.6-10.8,0.3c-5.1,2.6-9.7-6.4-13.5-7.7c1.4-0.1-3.5-2.5-0.9-3
			c-1.2-0.4-0.7-1.7-1.8-3.5c-0.7,0.1-3.2-2.6-2.3-3.3c-1,0.8-2.7-1.7-1-1.5c-1.4-0.1-1-1.2,0.4-0.5c-0.1-1.5-3.6,1.1-1.8-0.7
			c-2.3,0.7-0.6-0.7-2.3-0.8c-0.6-1.2,1.5-0.6,2.1-0.7c-0.2-0.6-2.9,0.5-2.1-0.5c-0.9-3.3,0.9-0.6,1.3-1.9c-1.9,0.7,0.2-2.4-1.3-1.1
			c0.8-1,0.8-1.4-0.1-0.1c-2.3-3.7,3.2-7.8,1.9-13.5c-0.7-2.3-0.6-1.3-0.1-3.3c-0.1-3.5-3.9-2.8,0-7.2c1.6-4.6,5.1-8.9,8-14.2
			c7-2.1,8.1-7.1,9.6-13.4c13.7-9.8,1.5-9.8,16.1-7.1c4.6-2.3,9.5-5.2,15.3-5c1.9,1.2,3.1-0.4,4.5-0.3c2.3,0.1,4,0.7,6.2-0.8
			c2.1-0.9,1.2,2.7,3.4,0.6c-2.3,3.7,1.9,4-0.9,6.9c-3.7,1.7,3.1,4.5,5,4.8c4.8-1.6,5.4,4.5,9.3,4.5c10.8,7.3,3.3-5.5,12.1-4.7
			c5.6,3.1,14.4,7.3,19.6,3.7c-1.5,0.9,1.8-0.6,2.8,0.5c-1.8-1.3,0.7,2.2,0.2,0.2c6.5,0.3,7.1,2.9,5.2,9.9c-2.4-1.3-6-9.8-3.6-3
			c4.6,6.9,6.1,13.7,10.5,19.8c1.8,2.1-0.6,7.7,3.6,9.3c2.2,2,2.1,6.2,3.8,8.9c0-2.2,0.5-0.4,1.1,0.3c3.2,0.6,4.9,4.9,7,6.2
			c1.5,1.6,0.1,2.4-1.3,3.2c3.7,0.5,3.6,4.9,8.5,2.1c3.2-0.6,6.3-1.4,9.7-2.2C388.6,198.2,387.1,206.4,387.8,205.4z"/>
	</g>
</g>
<g id="Layer_2" class="st1">
	<path class="st2" d="M385.6,47.9c-2,12.7,7.3,60-12,58.2c-0.7,0.8-2.3,2.8-3.9,2c0.3,4.5-2.2,1.2,1.2,6c-1,0,4.9,7.4,7.8,9.1
		c-2.6-1.6-2.4,4.1-2.6,5c-3.7-0.5,0.2-6.7-5.3-1.4c-4.6,0.5-6.7-5.9-9.2-7.2c-3.3,0.6-1.9-0.1-3.3-3.2c-0.5,1.3-2.6,1-2.6-0.5
		c-1-4.8-12.7-5.4-6.5-7.4c-0.6,0.3,0.8-2.2,1.6-1.3c-2.8-2.2-0.8-1.3,1.4-2.9c-2.6-0.5-6.3,0.6-8.8,2.8c0-0.1,1.1-1,0.3-1.1
		c0.3,0.4-0.3,0.5-0.5,0.7c-0.1,0.7,0.5,1.1-0.3,0.5c0-0.1,0.3-0.2-0.1-0.4c-0.5,1.3-0.4,0.2-0.3,0c-0.4,0.1-0.5,0.2-0.8-0.3
		c0,0.2,0.2,0.4-1,0.2c1.3,0.9,1.8,0.5,3,1.6c0.4,0.5-0.3,0.7,0.8,1c-1.1-1.6-0.8-0.7,0.3-0.2c0.8,0,2.7-0.9,2,0.5
		c-3.8,0.1-5.5,4.3-6.5,0c-4.3-1.4,1.2-1,0.2-2.6c-2.7,0.1-6.2-0.9-2.2-1.4c-1.3,1-1.7-1.5-1.5-0.1c-0.7,0.8-0.8-0.7-1,0.2
		c-1.8-0.1-1.1,1.9-2.6,0.8c1.6,1.3-0.6,2-0.8,1.6c0.8,3.8-0.9,1.7-1.6,3c0.7-0.5-0.7,1.9-0.2,2.7c-0.1,1.1-1.8,0.9-1.5,2.6
		c-1.5,0.7,2.1,2.2-0.5,2.1c-3.3-1.4-1.1,2.2-2.9,3.3c-1.8-1.2-7.1-0.4-3.5,1.6c-2.6-1.6,0,1.5-2-0.3c-0.7-0.1,0.2,0.8,0.5,0.9
		c-0.7,0.1-1.9-1.4-1.7-1.8c-2.6,0.8,2,3.5,0.5,4.2c0.9-1.4-1.7-0.4,0,0.1c-2.4,1,2.3,1,2.3,2.8c0.8,1.7-1.6,0-1.2,0.1
		c-2.5,0.2,1.2,1.3-0.5,1.9c-2-1.9-0.1,1.3,0.1,2.4c-1.9-2.3-1.2,1-2.2-1.2c-2.4,0.2-0.2-1.3-2.5-2.9c1.2-2.2,2.9,0.1,4.3-0.5
		c0.8-0.5-1.4-0.5-1.5-1c-1.4,0.7-3.3,0.3-3.7-1.4c1.5,0.4,0.5-1,0,0c-3.7-3.7-2.6-4.3-3.4-8c-5.4-4.2-7.3-3.7-10.9-9.4
		c-0.9,2.5-2.6,0.3-1.2-0.8c-0.5-0.7-4.5,0.1-3.1,1.5c0,1.7,2.9,2.7,3.6,6.3c0.7,2.4,3.5,1.9,4.8,2.7c-1.6,2.1,5.1,2.1,5.1,4.7
		c-0.5,2-3.7-3.8-4.2,0.7c2.7,1.8,0.3,3.1-1.1,5.2c-1.6,0.5-0.1-2.2,0.5-2.4c-0.7-3.9-3.5-4.2-5.2-6.4c-1.5-0.9-5.9,1.1-4.6-2.8
		c-1.2-1.2-2.8-2-3.2-4.2c-4.4-6-5,5.1-11.5,0.7c-1.9-0.6-4.9,0-3.9,3.3c-0.9,3.6-9.3,3.6-7.4,9c1,1.3-5.2,6.9-7,6.2
		c-3.1-0.9-6.8,4.3-7.2-0.3c-2.9-3-6.9,2.7-4.9-4.8c-1.9,0.9-0.5-0.2-0.5-1.1c-3,2.8,1.5-5,0.9-4.8c0-4.5,0.4-4.4-0.4-6.1
		c1.4-3.8,9.5-1.2,14.8-1.2c3.6,0.8,1.5-8.7,3.6-4.8c0.7,0.2-1.5-2.2-0.7-3.4c-1.5,0.4-2.3-1.9-2-2.6c-1.2,0.1-0.2-0.7-1.6-0.7
		c1-0.4-1.1,0.2-0.7-0.7c-2.3,0.4-3.6-1.5-1.8-1.4c-2.3,0-0.8-1.3,0.8-1.1c2.6-0.5-0.9-0.5-0.6-2.4c0.7-1.9,1.1-2.6-1.2-1.8
		c-0.4,0.7-1.5,0.7-1.7,0.3c1.3-0.4,2.1-1.7,3-2.3c1-0.5,5.9-2.2,2.8-1.4c-2.2,0.6-2.1-0.8-4.3-0.4c1-0.3,0,0.2-0.2-0.5
		c1.8-0.5,4.2-3.2,1.1-2.4c2.8-1.8-2-1-1.4-3.9c-0.4,0.7-2.1,0.3-1.1,0.6c-0.6,2.4,0.5,5.4-3.3,5.1c-1.5,0.9-1.6,1-3.5,1.5
		c-1.2,0.3-1.7-0.1-0.6-0.4c-1,0-1.8,0.3-0.3-0.4c-1.5,0.8-1.9-0.5-0.2-0.7c-3.6,0,2.5-1.1,1.9-1.7c-2.5,1.4-1.3-0.5,0.2-1.2
		c-1.3,0.2-3.4-1-1.5-1c-0.6-0.1-0.1-0.6,0.3-0.5c0.6-0.2-0.6-0.3-0.6-0.2c0.7-0.9-1.2-0.9,0.8-1.2c1,0.6,4.1-0.6,1.7-0.9
		c0.1-0.5,2.9-2.5,2.3-0.9c0.5-1,2-1.1,0.5-0.1c0.9-0.8,4-0.5,2.8,1c2.2,0.6,2.8-3.6,2.5-3.5c0-0.9-0.5,0.3-0.5,0.7
		c-0.6-0.5-0.7-0.8,0.1-1.3c-1-0.1-0.9,3-1.7,2.1c0.8-1.3,0.2-1,0.7-2.4c1.4-0.6-0.3-0.3,1-0.9c-0.1-0.6-2.6,1.7-2,0.9
		c-0.8-0.6,0-0.7,0.9-0.8c-1.2-0.2-1.2,0-0.1-0.4c-0.6-0.3,0.2-0.7,0.6-0.7c-0.6-0.3-0.9-1.4-0.3-1.7c1.7-1.8,1-2,5-2.2
		c0.6,0.7-1.9,2.1-2.5,1.9c2.1,0.2-1.2,1.4,1.5,0.6c9.2-0.7-4.7,5.9,1.7,4.4c2.1,0.1,1.4,2.8,2.6,3.7c1.8,0,1.5,1.6,2.3,2.6
		c-3.8-1.2,1.9,0.3-0.4,1.9c0.8,0.3,4.2-1.1,3.2,1.6c-1.1,1.4-2,2-2.3,2.3c6.1,1.1-7.8,2.4-8.3,2c-1.1,1.6,3.1,0.9,1.8,3.8
		c2.1-2.3,2.4,0.3,5.3-0.3c0-0.6,1.2-1.5,3.4-2.2c-0.7-1.2,0.6-2.8,1.9-2.4c1.3-1.5,5.8-0.2,1.9-1.2c0.4-0.7,2.4,0.7,1.1-0.2
		c0.2-0.1,0.7,0.1,0.2-0.2c0.8,0.1,2.2-0.4,0.5-0.3c-1.6-1.4,4.2-6.5,5.8-3.7c-1.2-1.5,1.8-1.9,1.8-0.9c0.9,0.2,1.1-2.2,3.5-0.2
		c-3.1-1.5-1.1-2.4-2.7-4.3c1.3-0.4-2.1-1.9-0.1-1.9c-2-1.6,1.2-2.6,1.8-1.6c-0.7-1.2,0.5-1.6,1.6-1.2c1.3,1-1.6,0.9,0.3,0.9
		c-0.7,0.9,2.3-0.3,0.9,1.3c-1.5,0.1-1.6,1.5-2.5,3c0.6,0,0.9,0.6,0.2,0.4c-0.6,0.2,1.5,0.3,0.8,0.5c0.2,0.8,0.2,0.5,1.2,0.8
		c2.2,0.1-0.7,1,1.7,1.2c2.2-1.7,2-1,4-1.5c-1-1,1.7,0.6-0.5,0.6c1,0.4,1.7,1.6,1.1,0.3c0.5,0.3,1.5,1,0.1,0.8
		c0.6,1.9,8.3-5.2,9.8-1.3c1.4,0.4,3.7-0.4,2.7-0.8c-1.1,0.8-0.3,0.8-0.1-0.3c0.5-1.4,2.7,0.8,2.6-1.1c-1.7-2.1-1.6-6.2,1.7-6.4
		c1,0.7,1.8,2.7,3.2,1.6c0.5-0.3,0.3-3.5,0-3.1c-1.7,0.6-1.8-1.7-1.8-2.2c3.9-1.8,8,0.2,10.8-2.1c2.6,0.9,1.1-0.7-0.6-0.4
		c-1.7-0.6-0.2-1.6-1.5-1.2c-6.6,0.9-8.1,2.8-12.1,0.3c-1.9-0.5-0.5-2.8-1.5-4.6c-1.4-2.1,2.3-1.8,1.6-2.9c11.7-6.1-1.8-7.6-2.1-3
		c0.9,2.1-3.1,3.1-5.2,4.3c1.3,0.2-0.9,0.9-0.9-0.2c0.5,1,0.4,1.7-0.6,1.5c0.8,1.2-0.6,2.2-0.2,2.3c-1.3,2.1,3.2,3,3.4,4.2
		c1,0.5-1.5,1.4-1.4,1.2c0.2,0.7,1.1-0.3,0.9,0.5c-1.4,0.8-3.7,2.1-4,2c1.3,0.7,1,6.4-2.4,6c-0.7,0.2-2.1,0.5-1.3,1.7
		c-0.9,0.5-3.2,0.8-2.8-0.7c-1.7-1.4,0.7-1.6-0.8-2.7c-1-1.2-2.6-4.2-1.5-3.6c0-0.4-2-0.4-1.1-2.3c-1.8,0.1-0.7-2.9-1.5-1.8
		c0.4,1-4.3,5.5-7.5,4.2c-3.8-2-0.7-2-0.6-3c-0.2-0.6,0.3-0.3-1-0.2c0.7,0-0.4,0.7-0.2-0.2c-0.5,0,0.2,0.8-0.4,0.4
		c-0.5,0.2-0.3-0.9,0.2-1c-0.1,0.4-0.4,0.9,0,0.3c0.7-0.3,0.4-0.1,1.1-0.5c-1.9-0.1,1.2-1.7,1.9-1.8c-1.3-0.6-2.3,1.6-2.9,0.7
		c0.3-1.1,0,0.3-0.4,0.1c-0.7-1,1.8-1.8-0.1-1c-1.7-0.8,1.4-0.1-0.5-0.9c0.3-0.2,3.2-0.9,4,0c0.5-1.5-1.6,0.1-3.8-0.6
		c1.2-0.7-0.7-0.4,0.9-0.7c-0.3-0.4-1.1-0.3-0.4-0.5c-1,0.2-0.4-0.3-0.2-0.5c-1.2-0.1,0.1-0.1,0.4-0.5c-0.9-0.4-0.3-0.7,0.1,0
		c0.2-0.7,0.6-0.2,1.6-0.2c-1.8-0.5,2.1-1.5,1.1,0c0.7-0.5,0.8-0.4-0.1-0.9c-1.9-0.2-0.2-0.5,1.7-0.3c-0.8-0.6-0.6,0.1-1.4-0.8
		c1.4-0.9,3.9,1.7,1.9-0.4c1.7,0.7,0.7,0.3,0.6-0.3c1.5-1.4,3.9,0.5,5.3-1.6c1.6-1.2-1.3,0.1-0.4-0.1c-1,1.9-2.2,0.1-2.5,0.3
		c1.5-1.4,2.8-1.8,3.8-2c-0.8-0.1-0.3-0.5,0.3-0.5c-0.7,0-0.7,0.2-1-0.1c0.7-0.2,0.6-0.8,1.9-0.7c-1.7,0.6,2.2-0.8,0.6-0.2
		c-0.4-0.1-1.3-0.3-0.5-0.8c1.4,0.9-0.7-0.7,0.5-0.3c-0.7-1,2.2-0.4,0-0.9c1.4-0.6,1.3-0.2,0.6-1.1c1.1,0,1.5-0.1,0.3-0.4
		c1.3-0.1,0.6-1.1,3.1-1.3c2.6-0.2-1.8,0.1-0.5-0.6c0.5-0.4,0.9,0.2,2.1-0.3c-1.4,0.3-1.4-0.7-0.1-0.2c-1.6-0.3-2.6-0.2-0.6-0.6
		c1.3,0.1,0.3-0.4-0.4-0.2c0.8-0.6,1.2-0.4,1.9,0.4c0.4-0.7-1.3-1.2,1.3-1.1c1.7-0.2,0.2-0.1-1.3-0.3c2.3-1,1-0.4,2.7-1.5
		c-0.7-1.6,2.8,0.5,0.6-0.9c1.1,0.4,2.2-2,1.9,0.2c0.7-1.5,2-1.5,0.6,0.3c0.6-0.3,0.8-1,1.5-0.5c-1.8-1.6,2.8-0.5,1.8-0.9
		c0.2-0.4-0.3-0.3,0-0.5c-2.9-0.2,0.9-0.6,1.5-0.2c-1.3,0.6,0.2,0.2,1.1,0.5c-1.2-0.5,0.9-1.3,1.7-1.6c-2.3-0.5,4.2-1.1,0.8,0.5
		c-0.3,2.9,3.1-3.8,2.4,0.3c0.7-0.2,0.7-0.5,1.2-0.5c-0.4-0.4,0.4-1.7,1.9-0.8c-1.5,1-0.8,1.1,0.2,1c0.1-1.9,3.1,0.1,4.3,0.3
		c-1.3,1.6-5-0.3-2.4,1.1c5.3,0.9,11.1,0.7,21.1,5.6c1.9,6.8-12.8,1.8-15,0.9c-0.6,1,2.9,1,4.8,3.5c-1.6,2,6.4,6.7,6.6,3.4
		c-1.2-0.3-4-0.8-2.5-2c1.9,0,9.4,3.4,4.9-0.7c5.7-5.3,6.4,0.3,7.9-2.9c-1-1.2-2.4-1.9-1.4-3.3c-0.3-1-3.4-1.9-0.8-1.2
		c1.8-0.1,3.9,0,5.1,1.7c-4-0.3-2.5,2.2,0.4,2.3c3.1,0.3,0.5-2.1,4.9-2.8c1.6-1.2,3.4-0.8,4.6-0.9c-2.4-1.3,5.1-1.5,1.2-1.1
		c1,0.4,0.9,1.1-0.1,1.6c2.4,0.7,3.2-1.4,5.9-0.8c6.1-2.2,2.3,0.6,5.5,0.5c-0.6-1.5,3.4-0.3-0.8-2.7
		C378.9,45.6,383.7,47.5,385.6,47.9z"/>
</g>
<g id="Layer_7">
	<g>
		<path id="path3348-4-3" class="st3" d="M526.9,327.8c4.7-2.8,2.2-17.4,1.1-20.4c0.3-1.3,0.4,0.5,0.6,0.9c1.6-0.6-0.8-2,0.2-3
			c0.6,3.3,2.4,2.2,0.8-1.3c-0.9-2.8,1.2-5.1,1.5-7.7c1.6-3.8-0.1,2.8,1.8-0.8c3.6-3.2,6.7-3.8,10.9-5c8.4-1.8,6.8-4.6,10.5-9.6
			c1-2.3,0.9,1,1.7,2.2c1.8-3.4-0.1-1.3,0.6-3.2c0-1.5,0.6,0.1,2-0.1c0.7,0.2,1-0.1,0.1-0.1c-0.7-0.2,1.2-1.8,0.3-1.1
			c-0.8-1.3,0.9-2,1.7-1.1c-0.9-0.6-0.7-1.6,0-1.1c1.4,0-0.4-0.5,0.6-1.5c0.6,0.3,0.7-0.3,0.7-0.8c0.6,1.2-0.4,0.4,0.6,1
			c0.1-0.4,1.1-1.5,0.5-1.6c-0.4,0,0.6-0.7,0.2-0.2c1.7,1.2,2.1-2.7,4.5,2.1c-0.4,2.2-0.7,1.1,0.1,1.7c-0.2-2.7,2.7-1.3,3.5-0.6
			c0.4-2.3-1-1.3-0.2-3.1c0.8-0.9,2.2-1.9,1.8-2.9c0.8-1.1,1.1-0.8,1.4-1.8c1.1,0.9,0.2,0.1,1.1-0.6c1.7,0.3,4.2,0.9,3.8-1.4
			c-0.4-1-1.3-0.1-1.8-0.9c0.2-0.5,0.7-0.5,0.7,0.2c0.1-1.9,1.2,1.3,1.7-0.2c0.6,1.3,5.7,3.2,6.2,1.8c1.6-0.6,0.1-0.1,0.2,1
			c1.4-1.2,0,2,2.1-1.2c-0.4,1,1.6,1.4-0.5,2.7c0.6,1.6-1.4,0.2-1.4,1.7c-4,6.4,2.5,6,6.2,10.8c9.1,5.6,6.8-28.6,11.5-14.9
			c-0.5,1.7,0.5,4.4,0.3,6.6c1.4,0.6,1.4-1.2,2.8,1.1c1.3,0.8-0.1,3.4,0.4,5c1.4,1.5,0.3,4.3,0.6,6.5c0.6,0.6,1.9,1.7,2.3,1.1
			c0.1,1.8,1.7,1.7,2.3,2.4c0.4,1.4,1.2,3.5,1.1,6.4c4.2-1,1.2,1,2.5,3.1c0.4-0.6,3.2,4,2.9,6.5c0.1,13.5-13.7,22.1-20.3,32.1
			c-5.1,0.5-9.8,5.3-10.8,2.8c1.1-2-0.9,0.5-1.4-0.7c3.1-2.7-1.7,1.4-3.8,1.1c-8.8-3.1-3.3-2.1-5.4-8.7c2,2.2,0,1.2,0.6-0.1
			c0,1.6,0.9-2-0.3,0c-0.3-0.1-1.4,0.7-2.2,0.3c1.5-0.9,2.3-2.3,1.7-4.1c-1,0.7-1.3,2.9-2.6,2.8c-3.6,1.4,4.7-4.4,3.6-7.1
			c-0.4,1.3-1.8,2.2-2.6,3.2c-5.1,2-4.9,6.6-4.9-1.1c-1.6-1.2-1-0.7-0.4-2.2c-1.1-0.2-0.3-0.1-0.8-1.1c-7.9-2.9-18.4-0.2-25.6,5.2
			c-4.3-1.8-8.9,1-12.9,2.8C530.2,332.8,523.6,329.2,526.9,327.8"/>
		<path class="st3" d="M622,263.2c-1.4-0.1,1.1,0.5-0.2,0.8c-2.5-0.8-7.5-1-8.9-5.2c-0.4-2.6-3.4-2.2-4.2-3.3
			c-0.4,0.1-1.1,1.2-2.3-0.4c0.7,1.2,0.8,2.1-0.8,1.3c1.7,1.3-0.2,1.5-0.9,1.4c5.6,1.3-2.3,3.1-4.9,2c1.8-9.4-3.3-23.2,9.7-14.1
			c2.3,1.4,2.3,4,4.4,5c0.5-0.2,3.1,0.2,4.1-1c-0.6,1.4,2.5,0.9,2.7-0.6c2.1,0.3,0-2.9,1.6-2.1c3.8,0.3-2.3,6.4-6,5.5
			c-0.6,1.1-4.3,1.5,0.5,4.3c-0.3,2.4,1.5,2.5,2.4,3.1c-0.7,1.5,1,0.9,1.6,1.4C618.3,262.6,624.3,262.9,622,263.2z"/>
	</g>
</g>
<g id="Layer_3">
	<g>
		<path class="st4" d="M122.6,228.5C122.6,228.5,122.6,228.5,122.6,228.5C122.5,228.7,122.5,228.8,122.6,228.5z"/>
		<path class="st4" d="M229.7,242.6c-0.2-2.1-0.2-7.8-4.9-7.1c-3-1.4-4.7-5.1-8-6.1c-3.3,1.4-6-2.1-8.8-0.5
			c-0.7,0.1-1.2,1.3-0.4-0.5c-0.9-0.4-0.7,0.9-1,1.4c-2,2.4,1.3-3.4-0.8-1.9c2-1.6-3.4-3.1-4.7-3.7c-1.6-1.8-4.5,0.1-4,2
			c-1.5-2-3.3,5.1-2,0.2c-1.2,0.3-2.9,1.2-3.4-0.4c-0.2-0.1-0.2-0.2-0.1-0.2c0,0.1,0,0.1,0.1,0.2c0.9,0.5,4.6,1.5,5.3-2.6
			c1.2-2.2-6.7-2.3-5.4,1.1c1.3,0.1,0,0.6-0.3-0.4c-1.2,1.7-2.7,2-4.2,1.9c1.7-0.9,8-8.2,6.2-9.4c-2.6-0.3-2.2-9.4-3-6.1
			c-1.4-2.3-1.8-2.9-5.4-4.8c-0.3-0.1-0.6,0.4-0.9,0.8c0,0,0,0,0,0c-0.4,0.9-0.3,0.5,0,0c0.4-3-4.3-0.5-6.2-1.5
			c-1.2,1.3-2.8-4.8-4.5-1.1c2.7-7.4-8.2-5.3-5.6-6.4c1.8-2.5-0.1-2.5-2.2-3.6c-0.1,0.3,0.3,0.3-0.1,1c0.2-1.3-0.2,0.2-0.9-1.6
			c-0.2,0.9-1.6,0.8-0.1,0.2c0.2-0.9-1.3-0.4-0.4-0.8c2.2-0.9,2.5-0.6-1.2-0.6c-2.5-0.8-2.3,3.5-6.4,0.6c-1.4-1.8-5.8,2-5.3-1.7
			c-0.5-1.5-2.7-0.7-3.2-1.6c0.1-2.3-1.4-1.4-1.1,0.1c3,0-2.1,1-3.3,2.2c0.9,1.4,1.4,7-0.9,3.8c-0.8-2.2,1.3-3.6,0.3-6
			c3.1-1.4,1.3-2.9-0.5-1.8c-0.2,2.5-4.2,1.8-5.2,3.2c-0.1,1.1-1.5,1-0.3,0.3c-3.3-1.4-2.4,3.8-4.1,4.5c-0.5,0.7-1.7,1.8-2.2,2.3
			c0.1,0.2,0.4,2.3-0.2,1.6c0.4-1.1-2-2.9-0.7-0.5c0.3,1.9-1.5,0.9-1.4,2c-0.1,1.4,0.9,2.9,1,4.3c-0.4,2-0.9,5.6,0.3,5.5
			c-1.1,2-1.6,3.5-3.8,4.4c-0.3,2.3-0.7,3.1-3.4,4.1c0.6,2.8-2,3.8-1.7,5.7c-0.5,2.8,0.5,4.2,2,3.3c0-0.4,0.1-1.2,0.4-1.3
			c-0.4,1.2,0.4,3.7-1.3,3.8c-3.6,2.3-0.7,5.3-1.7,7.5c11.2,8.9,9.7,26.1,24.7,30.9c8.6,7.4,3.8,25.3,5.8,36
			c0.2,4.9,2.8,10.2,1.2,15.6c-0.6,3.9-1.1,5.3,1.7,9.8c-0.8,2,0.3,8.6,2.6,5.8c0.3,0.1,0.7,0.4,1,0.4c0.1-0.2,0.1-0.4,0.2-0.6
			c0.1,0.6,0,0.7-0.2,0.6c-0.4,1.3,0.5,0.3,1,2.2c-1.3-1.6-1,0.2-0.1,1.5c-0.7-0.1,0.1,2.6,0.5,1.8c-0.5,1.1-0.3,2,1.2,1.9
			c0.6,1.8-2.5,2.1,0.5,2.8c-3-0.3,0.7,2-0.9,3.2c0.1-1.9-0.3-0.4-1.6-1c2.2,0.3-0.4-1.8-0.1-0.7c-1.7-1.4-1.2,1.3-0.7-0.1
			c0.8,1.1-2,0.9-0.8,2.6c1.6-2.1,0.1-0.2,3,0.1c0.6,0.7,0.6,0.2,0.6,1c-1.2-0.2,0.1,0.8,0.5,1c-0.6,0.3-1.8-0.7-0.7,0.7
			c1.7-1.2,1.9,0.6,2.4,0.7c-0.8,0.1-2.3-0.9-2.4-0.2c0.9,0.3,2.8,1.5,1.2,1.2c-0.3,0.6,1.2,0.5,0.2,0.6c0,1,1.6,3,1,0.8
			c0.6-0.1,0.1,0.9,0.9,1.5c0.2,0.1,0.3,0.1,0.5,0.3c-0.2-0.1-0.4-0.2-0.5-0.3c-1.2-0.5-0.4,0.9,0.5,1.1c-1.6-0.2-1.5,0.7,0.6,1.3
			c-1-0.2-0.5,0.3,0.4,0.8c0.3-0.9-0.3-1.1,0.5-0.5c-0.6,0.3,0.2,0.7-0.6,0.7c-0.8,0.2,0.9,1.3,0.8,0.7c1.5,1.5-1.1,0.2,1.7,2.1
			c-1-0.4,0.8,0.8,0.3-0.1c-0.1-0.1-0.3-0.3-0.4-0.5c0.2,0.2,0.3,0.4,0.4,0.5c0.4,0.3,0.6,0.3,0.1-0.5c-1-0.7,1.7,0.5,1.8,1.1
			c0.3,1.6,0-0.1-0.9-0.6c0.4,1.4,0,0.2-0.7,0.7c-1.4-0.7,0.1,1.8,1.1,0.8c-0.4,0.3-0.7,1.3,0.4,1.6c0.2-0.2,0.2-0.3,0.2-0.5
			c0,0,0-0.1-0.1-0.1c0,0,0,0,0.1,0c-0.1-0.5-0.6-0.9,0.6-0.9c-0.9,0.7,1.7-0.5,2,0.3c-1,0.1-2.1,0.2-2.5,0.5c0,0,0,0.1,0,0.1
			c0.9,1.3-1.3,1,1.9,1.7c-1.6-0.7,0.4-2.1,1.7-1.7c-0.9,1.3-0.2,1.9-1.1,1c-1.5,0.2-0.5,1,1.3,1.5c2.9,0.5-1.6-3.6,2.5-3.6
			c0-1.2,1.2-0.4,1.9-0.4c0.7,0.2-1.5-1.8-2-1.7c-0.1,0.1-0.7-0.2-1-0.1c2.7-0.3-2.2-2.5,0.7-4c-2.9-2,2.2,2.1,0.7-2.2
			c4.9-8.9-0.2-2.6-3.3-9.3c0.5-2.9,3.2-1.5,3.2-3.9c-0.7-1.6-1-2.9,0.7-3.9c-0.6,0.1-2.2-0.4-1.2-1.1c1.1-0.7,1.3,1.7,2.5,0.6
			c-0.6-3.7-1.2-0.7-2.4-1c-1-0.5-3.3-4.8-2-4.4c6.2,3,5.8-1.6,4.1-5.1c4.2,1.1,15-2.5,8.8-9.1c-0.7-2.9-5.9-3.8-3.6-7.6
			c-2,4.2,7.8,7.8,10.7,3.8c2.2-2.9,2.2-8.5,3.7-9.6c0.2-0.8-0.7-2.8,0.1-1.5c0.5,0.5,0.5,0.3,1.1-0.1c0.6,0.6-0.2,0.4,0.1,1.1
			c-0.1,2-2.2,2.8-2.4,4.3c3.2-4.1,6.3-9.6,5.8-13.5c0.4-0.4-0.4-1.8-0.5-2.6c-0.6-0.2,0.9-1.2-0.2-1.2c1.4-0.9-0.3-0.6,0.5-1.7
			c0.8,0.6,2.7-2.4,4.3-3.8c1,0.1,2.3-0.5,3.2-1.4c1.9-2.3,1.8-0.7,4.1-1.3c-0.8-1.4,2.3,1.1,2.8-0.5c5.9-7.6,5.2-21,5.6-27.3
			c-0.5-0.9,0.7-1,0.6,0.1c1.1,0.4,2.7-4.2,2.3-4.1c0.2-0.7,1.1-0.5,0.4-1.4C226.3,250.9,229.5,247.2,229.7,242.6z M161.9,354.6
			c0.1,0,0.2-0.1,0.2-0.2C162,354.5,161.9,354.6,161.9,354.6z"/>
	</g>
</g>
<g id="Layer_4">
	<path id="path6898-8-9" class="st5" d="M12.6,436.1c10.7,1.2,31,0.9,9.4-3.1c2.2-1.9,4.8,1.2,7.3,0.2c-1.9-0.5-4.8-1.5-0.4-2
		c9.5-7.4,40,0.3,47.3-6.6c1.8-0.2,2.3,2,3.7,1.8c-0.7,1.5,2.9,2,3.8,1c-1.2-0.6-1-0.8-2-1.8c4.5-1.9,3.3,5.7,6.7,3.3
		c5.8,0.6,11.6-0.8,17.2,0.4c-0.6-3-3.3-1.2-6.1-4c-7.1-3.1-0.5-0.6,2.9-1.9c-3.3-1.8-7.1,0.5-10-2.8c9.4,1.8,25,0.7,29.4,1.1
		c4.7,0,12.8,4.8,14.5,0.7c-2.8-3,4.8,2.1,6.1,0.6c1.6,1.1,4.4,1.1,6.8,0.2c18.6-2.6,4.8-8,1.9-15.7c6.1-0.4-1-2.6,1.3-4.3
		c-2.9-0.8,0.6-3.6-2.7-2.7c-1.7-1.9-0.1-2,0.9-2.8c-1.5-0.8,1.3-3.4,1.5-3.6c1.6,1-0.3-1.9,1.5-1.4c-1-1.8-1.2-2.5,1-1.9
		c-0.7-1.3,0-1.1,1-0.9c-1.5-1.3,0.5-0.4,1.3-1.4c0.3-2.2,4.5-4.3,7-5.3c3.3,2.4-4.2,0.3-1.5,5.3c-1.4-2.4-6.8,3-4.4,3.9
		c-3.1,3.7,3,1,2.9,2.2c-1.2,2.3-5.3-1.6-2.7,2.2c-0.8,0.3-3.7-3-2.7-1.2c-0.8,0.9-0.7,1.5,0.5,2.1c-0.9,0.8-2.9-0.8-1.4,1.5
		c-0.7,0.4-2,0.6-0.4,1.5c-1.3,1.7,4.8,5.7,3.9,4.2c-0.9-0.8,0.7-2.2,2.3-1.3c-1.3-0.2-3.2,0.8-0.3,1.4c-1.7-0.5,0.4,2,0.6,1.5
		c0.3,0.6,5.6,4.4,3.3,4.1c0.9,2.6,6.5,2,3.4,5.3c0.3,0.1,2.4-0.9,1.6,0.6c-1.1,0.7-3.3,0.3-1.3,0.9c1.7-0.8,4,1.3,1.8,1.2
		c1,1.1,2.3,1.3,3.4,2.1c4.1,1.8-7.3-0.2,0.6,2.6c-0.1,1.6-0.9,0.6-1.7,0.8c2.6,0.5,0.3,0.9,0.9,2.7c1.5,2.9-4.1-1.8-1.7,0.6
		c2.9,2.5-13.3,9.9-22.1,4.2c-9.1,1.7,13.8,4.8,9.3,7c-3.2,0.5-15.7-2.7-11.6-0.8c-3.6-0.1,13.8,3.1,2.1,3
		c-20.1-3.2,23.4,4.6,4.4,3.6c27.7,7.6,53.7,8.7,81.4,2.1c4.4-0.3,6.4-2,0.8-2.8c1.2-1.1,6.4-2.6,2.5-2.1c-27.3,4-3.1-12,9.2-10.4
		c6.1,0.4,5.7-5.1,12.1-7c-3.1-0.6-7.2,1.6-4.9-1.7c4-3.3,4.3-0.4,8.3-5.3c-2.3-2.5-2.4-3.4,0.3-1.5c2.1-2.4,0.9-3.9,3.8-1.5
		c2.6,5.9,2.4-1.9,5.5-2.1c2.7,0.7-1.5,1.5,0.1,2.7c2.8-0.2,5.8-1,8.1,0.1c15.1-3.4,28-6.4,45.4-3.7c8.5,0.5,17.7-2.8,24.4-7.3
		c2.5,3.8,2.7,4.7,6,2.7c-1.5,2.9-1.1,0,0.1,2.7c1.7-4.2,0.2,1.7,1.7-0.6c2.2-1.2,2.5-4.8,5.5-4.9c4.1-0.4,12-6.8,12.2-3.1
		c4.8,0.4,0.8-4.9,5.5-2.3c2.8,1.9-0.7-3.3,3.5-3.4c7.6-5.2,10.1,2.6,14.4,4.1c3.8,2.5,17.4-0.1,19.9,3.3c1.4,1.8-1.7,2.4-1.9,4.8
		c-2.8-0.4,0.7,1.8-4.4,2.9c-1.1,0.9,1.2,3.8,1.3,0.9c3.1,0.4-2.7,3.9-3.6,4.5c-2.2,8.4,8.2-1.7,10.8-3.9c2.7-3.9,7.5-3.2,11.3-5
		c7.7-10,17.5-3.4,26.4-12.2c0.2,5.5,7.2,0.6,11,2.3c7.1,0.6,11.3-0.8,18.6-2.8c4,0.4,8.3,3,11.2,3.2c3.7,0.1,7.8-6.9,11-2.5
		c-0.3,3.9,3.9-1.4,4,2.9c5.1,2.2,12.2-3.1,15.5-0.3c5.3-4.9,4.8,5.4,10-0.8c3.4-3.5,9.2,0.9,11.7-3.3c0.4-5.5,5.8-1.7,0.3,1.2
		c6.4,2.7,14.6,3.6,18.5,4.4c-4.2,3.4,1.7,0.6-0.7,3.8c0.6,0.3,3.2-1.9,3.6-0.7c-2.5,2.4,2.2,1.8,3.5,1.9c-3.1,3.3,0.1,1.5,1.7,1.4
		c1.5,1.2,3.1-0.1,3.9-1.7c1.3,0.9,0.6,1.4-0.6,2c1.2,1.9,3.7,1.6,5.3,0.3c-0.8,1.7,0.7,1.2,1.3,1.5c0.8,1.5,1.6,1.8,1.8,3.5
		c2.2,0.9,1.6-0.8,2.9,0.9c1.5,0.8,4.7,0.3,6.7,0.5c-1.6,0.6-0.1,0.6,0.6,0.4c1.2,0.2-0.4,1,0.5,1.6c0.3,0.1,1.1,0.6,0.6,0.8
		c1.6,0.9,3.9-0.2,0.6,2.1c-6.4,5.3-15.7,6.1-23.9,10.8c-6.8,1.3-8.3,7.1-11.7,9.3c4.5-0.4-3.9,2.7,0.6,1.2c-0.9,1.4,2-0.6,0,1.1
		c2.6,1.4,0.8,0.3-1.3,0.6c-7,0.4-10.9,2.4-16.9,4.6c5.4,0.1-1.5,0.2-3,1.3c1.5,0,6.5,0.3,1.7,0.4c1.8,0.4,1.6,0.5-0.5,0.6
		c3,0.8-3.4,1.4,1.7,1.2c-0.7,0.9-5.3,0.7-3.1,1.1c1.6-0.2,2.8,1.8,1.1,1.8c5.3,2.6,7,5.1,23.3,5.7c-83.5,28.2-261.9,0.8-377.2,10.1
		c-41.7,2.8-237.4-2.8-117.5-8.7c-13.7,2.3-61.9-14.3-29.9-9.4c0.1-9-18.1-4-24.7-8.5C29.2,439.9,6.7,437.4,12.6,436.1"/>
</g>
<g id="Layer_5">
	<path class="st6" d="M611,59.3c-1,1.2-13.9-3.6-17.3-4.4c0.7,0.2-1.1,0.7,0.8,1.2c0.3,0.1,1.5,0.3,1.6,0.6c0.1,0.4-1.2,0.1-0.5,0.4
		c1-0.4,1.1,0.5,0.5,1.3c-0.1,0.5-2.7,0.1-4.3-0.2c0.9,0.4-1.2,0.1-2.1,0c6.7,1.6,7.9,2.5,13.5,5.4c1.2,2-4-0.2-4.3,0.1
		c-1.6-0.6-0.5,0.2,0.4,0.4c-2.3,0.9-2.2,1.9-3.7,1.9c0.2,0.5-1,0.2-0.3,0.9c-1.5-0.1,0.2,0.4-0.7,0.3c0.5,0.3,0.2,0.4-0.2,0.3
		c0.7,0.3,0.4,0.5-0.2,0.3c0.9,0.3,0.4,0.6-0.2,0.9c0.5,0.4-0.6,0.7-0.7,0.7c2.5,2.5-2-0.5-4-0.5c-1.2,2.1-0.6,1.5-1.5,4.5
		c-0.9,2.9-1.2,1.7,0.1,3.6c1.3,1.9,1.3,1.9,1.3,1.9s1.4-1.7,1.2,0.9c0.4,0.5,0.6,1.1-0.1,0.9c-0.1,1,0,1.1,0,1.8
		c1.2,1,2.4,1.8,1.2,2.3c-0.7-0.1-1.1-0.1-1.4,0c0,0.5,0,1,0,1.4c0.9,1.2,2.7,2.6,0.9,1.8c-0.2,0.2-0.4,0.3-0.7,0.4
		c0.2,1.6,0.6,2.9,0.6,3.1c0.1,0.4,0.1,0.4,0.1,0.4v0c0.1,0.2,0.1,0.4,0.1,0.6c0.1,2.5-5.8-2.5-7.9-5.2c-4.3-3.4-9.5-9.3-7.8-11.9
		c2.6,0.1,0.6-3.7,2.1-5.6c-1.1-0.9,1-1.3,1.6-1.8c-0.6-0.9-3.1-2.4-2.7-3.8c2.4,0.2,2.1,0.2-0.4-0.4c-4.2-0.4-0.6,1.6,0.1,2.8
		c-2.3-2-1.6,3.3-3.3,1.9c-1.4-1-1.8-1-2.6-2.7c-2,0.6-6.9-1.1-5.4,2.8c-1.9,3.4,0.5,2.7,2.7,3.9c-7.3,1.8-4.7-0.7-12.5-1.2
		c0.8,3.5-10.2-2.6-12.8,3.6c0.6,1.9-1.5,3.9-1.5,6.2c-1.8,1.8-2.7,3.7,0.7,3.4c1.1-0.7,4.2,4.2,2.7,1.3c-0.2-0.5,0.5-0.4,0.8-0.5
		c-0.6,1,0,0.8,1,1c-0.9,1.3,0.2,1.3,1.1,0.8c0.3-1.3,0.8-0.7,0.6,0.4c1.1-0.3-0.4-1.7-0.8-2.1c2-0.1,5.8,1.4,7.2,2.7l2.2-0.9
		c-1.3-1.1-2.4-3.4,0.5-0.2c1.7,1.4,5.3,6.2,12.1,12.2c4,2.6-3.4-2.1-2.7-0.4c-0.1,0.3-0.1,0.7,0,1.1l0.3,0.1l1.5,0.2
		c0,0,0.7,0.5,1.2,0.9c0.6,0.5,0.6,0.5,0.6,0.5s2.3,1.5,2.3,2.2c0,0.7,1.7,1.8,1.7,1.8s1.1,1.9,1.5,2.1s0.9,1.5,0.9,1.5l1.4,2.4
		c0.2,0.2,0.6,0.8,1,1.4h0c0.7-0.2,0.5-0.8,2.1,1.2c-0.6-0.3,0.5,0.9,0.7,0.9c0.8,0.1-0.2,0.2-1.4,0.6c-0.2,1.6-0.5,4.3-0.5,4.3
		s-0.9-1.3-0.4,1.1c0.4,2.4,1,0.6,0.9,3.5c-0.1,2.9-0.1,0.6,0.2,4.1c0.3,3.5,0.4,3.3,0.8,4.5c0,0,0,0,0,0c0,0.1,0.1,0.1,0.1,0.2
		c0.4,1,0.9,0.4,0.3,1c0.4,1.4,0.4,2.7-0.6,3.6c-0.1-0.7-0.4-1.6-0.6-1.9c-0.6,1.7,1.2,0.2-0.9,2c0,0.9-0.3,0.8-0.6,0.5
		c-1.8,1.5-1.8,1.5-1.8,1.5s-0.9,0-2.6,0c-0.1,0.2-0.3,0.4-0.5,0.7c0,2.3-1.9,0.9-2.5-0.2c-0.2-0.3-0.1-0.7,0-1.1
		c-0.4-0.2-0.8-0.4-1.1-0.6c-2.3-0.1-3.5,0.6-4.9,1.3c0,0,0,0,0,0c0,0-0.1,0-0.1,0c-0.9,0.4-1.8,0.7-3.2,0.7c0.5,0.8,1,1,2,0.8
		c0.1,1.2,0.9,1.1,1.2,1.9c0.4,2,0.1,7.7-1.4,3.7c0.5,0.2,0.1-0.5-0.2-0.1c-0.5,0.6,1.3,1.8-0.1,1.2c-1.9-0.4,0.3-5.2-2.5-5.2
		c1.4,1.8,1,0.7-0.2,1.3c-1.6-1.9,0.8,0.2-0.1-1c-0.5,0.1-1.6-1.1-0.5-0.9c1.4-1.3,2.7-4.7,5.2-6.1c0.8,0.6,2.5-0.3,3.5-0.4l1.4-1.6
		l1.1-0.7c0.1-0.7,0.2-1.4-0.3-2.1c1.5-1.6,0.7,0.3,0.8,0.7c0,0,1-0.2,1.4-0.7c0.4-0.5,1.1-2,1.1-2s-0.2,0,0-0.7
		c0.2-0.7,0.5-2.9,0.8-3.5c-0.3-0.6-0.7-1-1.3-1.2c1,0.2,0-1.3-0.4-1.5c0.1-0.7,0.7-1,0-1.9c0.8,0.6,1.9,1.1,2.2,0.9v-0.4
		c-0.1-0.2-0.2-0.4-0.4-0.6c-1.2,0.9-1.3-1.1,0.5-0.3l-0.3-2.7c-1.1-0.4-2.3-0.7-2.9-0.4c-2.5-0.2,1.3,1.5,1.9,1.9
		c-1.1,0.3-2,2-2.4-0.5c-2.3-1-0.5-2.4-1.5-3.7c1.1,0.4,3,0.9,1.5-0.8c-2.4-6.1-2.1-5,1-3.1l-2.1-4.6c-0.3-0.1-0.6-0.2-1-0.4
		c-1.7-0.4,1.3,4.2-1.7,0.4c-0.2-1.4-1.1-3-2.3-4.8c-1.9-2.1-5.1-5.8-5.1-5.8l-2.9-2.5l-0.8-0.3c0.2,2.1,2.8,3.7,3.1,5.8
		c2,4.4-0.2,11.4-1.7,16c-2.1,3-5.3,0.9-6.2,0.1c-0.8,1,0.3,2.1-1.6,1.8c1.6,1.3-2,0.6,0.2,5c-0.8,1.5-3.6,2.3-2.6,4.1
		c3,1.5,13.7,12.8,6.2,11.8c-0.9,0.7-0.6,0.2-0.5,1.2c-1.2-1.5,0,0.3-0.6,0.1c0.3,1-0.7-1.8-0.9,0.4c-2.5-0.2-1.2-2.5-2.9-5.7
		c-2.2-1.4-0.8-1.2,0.4-1.3c-0.9-0.4-1.8-1.8-1.8-2.5c-0.2,0.1-0.3,0.1-0.4,0.1c0.2,0.1,0.3,0.3,0.4,0.5c-0.3,0.2-0.6-0.3-0.4-0.5
		c-1.4,0.2-1.6-1.2-2.3,0.4c0.1-1.2-3.2-0.9-1.3-2.8c1.7,0.1-1.3,0-0.5-1.8c-5.5-4.1-5.7,1.1-8.9,1.2c2.2-2.2-1.7-0.4,0.5-4.1
		c-3.5-5.3-4.1,4.9-7.9,3.3c-1.5,4.1,4.6,1.7,4.5,5.3c2,1.4,1.8-1.3,3.2-1.5c1.7,1,3,0.8,4.7,1.2c-0.3,1.2,0.4,1.5-0.9,1.3
		c-0.5-0.3-1.5,0.6-2.2,0.9c0.4,0.2-0.5,2.4-1,0.8c-0.5,0.2,0.7,1.5-0.7,1.9c-0.9,2.4,0.7,2.7,2.6,3.6c1.7,2.2,2.9,4.8,5.1,6.1
		c1.1,0.8,0.7,0.9-0.2,0.7c0.5,0.1,1.2,0.6,1.4,0.8c-0.5,0.5-1.5-0.6-1.9-0.8c0.1-0.1,0.3-0.1,0.5-0.1c-1.2-0.2-3.2-0.9-4.1-1.2
		c2.3,1.5,9.6,2.7,2.6,5.7c1.1-0.4,5.3,0,4,1.9c1-0.9,1,1.7,0.1,0.7c-0.5,0.4-0.1,0.3,0.4,1c-0.1,0.2,0,0.8-0.7,0.5
		c0.9,0.7,1,2.1-0.1,1c-0.7,1.2-0.6,3.7-1.2,3.6c-0.3,2.3,0,0.9-1.4,0.9c1.5,1.4,0.2,1.8-0.2,2c0.1,0,0.2,0.1,0.3,0.1
		c-0.1,0.1-0.3,0-0.3,0c0,0.1,0,0.1,0.3,0.2c0.8-0.6,1.1,2.6,0,1.1c0.5,2.1-1.3,0-0.3,1.5c-0.2,0.6-1.2,0.1-0.6,0.6
		c0.7,1.3-1.6-0.1-1.4,0.9c-0.2,0.2,0.3,1.4-1.3,1.8c-1.6,1.5-0.7,0.7-1.6,2.3c-1,0.7-2.6-0.5-1.8,0.7c-1.2-0.4-1.8-0.4-1.4,1.1
		c-1.6,4.1-2.9-1.7-3.5-2.1c-0.2,0.1-0.5,0.3-0.7,0.3c0.9,0.3,2.9,3.7,0.3,3.9c-0.5-0.1-0.8-0.3-1.1-0.5c0,0.1-0.1,0.2-0.3,0.2
		c0-0.1,0.1-0.2,0.2-0.2c-0.3-0.3-0.5-0.6-0.7-0.9c0.4,1.5-0.7,0-2.4,1.6c-1.2-0.2-1.8,0.3-2.3,1.5c2.1,0.9-0.3,3.1-0.6,0.6
		c-1.3-1.6,0.6-1.8-1.2-2.9c-0.2,2.1-2.1-0.7-2.5-0.5c0.8,1.5-1.1,0.8-2,1.8v0c-0.4,1-1,1-1.8,0.7c0.5,0.7,0.2,2.4-0.9,2.7
		c-2.7,2.4,2.5,5.5,1.3,6.2c3.1,3.1,5.3,4.3,7,7.3c3.1,5.5,2.3,13.4-3.6,12.5c0,0-0.1,0-0.1,0c0.1,0.2,0.2,0.4,0.1,0.6
		c-0.2-0.2-0.1-0.4-0.1-0.6c-0.5,0,0.7,1.3-0.8,0.9c1.1,0.5,0.7,1.3,0,1c0.5,0.8,0.7,1.8-0.6,0.7c0.5,0.6,0.2,1.1-0.9,1.5
		c-3.6,4.5-0.7-2.4-3-3.4c-2-0.9-2,0.4-2.3-2c-1.1,1.1-1,0.6-1.4-0.6c0,0-0.1-0.1-0.1-0.2h0.1c-0.3-1-1-2.2-2.8-3.3
		c-1.2-0.4-3.4,0.3-2.5-2.5c-3.4-0.9-1.4,2.7-2.5,4.9c-1.9,5.5-1,5.6,1.7,9c0.4,3-0.1,2.8,4.2,5.6c4.7,2.4,3.5,7.7,5.3,11.9
		c0.1,0.1,0.2,0.2,0.2,0.3c1,0,1.5,0.8,1.7,1.6c0,0,0,0.1,0.1,0.1c1.2,1,2.9,1.2,2.9,1.2s6.1,0.2,7,0.5c0-0.8,0.1-1.5,0.6-2.3
		c0.6-2.5,1.8,0.8,2.7-0.4c0.3,0.5,0.8,0.7,1.3,0.9c0.2-0.1,0.4-0.2,0.6-0.3c-0.3-0.8,0.4-1.8,0.6-2.4c-0.3-0.1-0.1-0.7-0.2-0.9
		c0.2,0.2,0.2,0.4,0.2,0.7c4.9-1.4,4.4-4.9,7.5-7.3c2.7,1.1,1.4,0.4,2.2-1.2c1,1,2.8-6.1,2.7-2.7c0.5-2,2.5,0.3,2,1.2l2.9-0.8h0.8
		l4.1-0.6l1.2-1.7l4.5-5.2l-0.8-0.2c-0.7,0.9-3.4-2.2-1.3-2.6l-0.5-1c-0.1,0.1-0.1,0.1-0.2,0.2c-0.1-0.1-0.1-0.4,0-0.6l-0.1-0.3
		c-0.4,0.3-0.8,0.5-1.3,0.8c0.5-1-0.4-3.2-0.2-3.8l-1.5-2.9c0.3,4.1-1.9-0.6-2.9-1.6c0.8-0.5,2.3,0,2.8,0.9l-0.1-0.7l-0.2-1
		c-1.3,0.4-2.8-0.8-1.2-2.1c-1.3-2.8-0.6,2.1-1.9-1.1c-0.4,0.2-1.7-3.5-1.3-4.2c2.2,2.9,0.6-2.7,0.7-3.9c-0.1-2.1,1.2-3.1,2.7-1.4
		c0.8,0.2,1.5-1.2,1.5,0.2c2,4.7-0.9,5.4-0.7,7.7c0.1,0.3,0.2,0.7,0.3,1.1v0c0.1,0.3,0.3,0.6,0.5,0.9c0,1.9,0.4,2,1,1.8
		c-0.2-0.1-0.3-0.2-0.4-0.4c0.2,0.1,0.4,0.2,0.6,0.3c0.8-0.4,1.8-1.1,2.7,1c0-1.4,0.8-0.6,1.8,0.1c-1.5-0.2-0.8,0.5-0.3,1.2
		c2,1.1,0,3.3,0.7,0.9c-0.6,0.4-1.8,0-1.8-0.8c-3.5-3.6-1.5-0.9-1.5-0.2c0.4,0.3,0.5,0.4,0.8,0.6c0,0,0,0,0-0.1
		c0.5,0.2,0.8,0.8,1,1.2c0.2,0.3,0.4,0.5,0.5,0.6c0.4,0.4,0.6,0.6,0.8,0.8h0c0.7,0.1,1.1,0,1.3-0.2c-0.4-0.6-0.4-1,1.4-0.8
		c1.4,0.7,2.8,5.5,0.2,3.5v0c0,0.1,0,0.2,0.1,0.4c0.3,0.9,1.2,2.6,0.3,2.4c0,0.2,0.1,0.5,0.2,1.1c0.4,1.8,0.1-0.6,0.4,1.8
		c0,0.3,0.1,0.5,0.1,0.7c0.7-0.1,0.4-1,0.2-2.4c0.9,0.9,3,2,1.8,3.3c0.9,0.9,1.5,2.6,1.2,4.2c-1,0.7-0.4,3.6-1,0.7
		c-0.8-1.2-1.1-1.3-1.1-0.9c0.5,1.3,0.7,2.1,0.7,2.1l2.4,5.5c0.3-0.3,0.4,0.1,0.3,0.6c0.2,0.5,0.7,1.2,1.1,2
		c0.6,1.1,1.7,1.9,2.6,2.9c0.1-0.2,0.3-0.3,0.5-0.5c0.3,0.4,0.3,0.9,0.1,1.2c0.1,0.2,0.2,0.4,0.4,0.5c1,1.8,2.1,2.4,2.1,2.4l4.6,2.4
		c0,0,4.7,2,7.8,3.5c0-0.1,0.1-0.1,0.1-0.1c0,0,0.1,0.1,0.1,0.2c1.1,0.6,2,1,2.3,1.3c1.1,1,0.6-0.3,2.2,0.9c0.1,0.1,0.2,0.2,0.3,0.2
		c2.2-1.3,4.4,0.1,8.2,1.5c2.2-0.2,1.1,6.7,0.6,10.1c0,0,0,0.1,0,0.1c0.3,0.7,0.9-1.1,0.3,0.7c-0.6,1.7,3.2-0.5-0.6,1.7
		c0.2,5.3,0.7,5.9-3.4,3.2c-0.6-0.2-2.1,0.6-1.4-0.6c0,0,0-0.1,0.1-0.1c-3.3,0.9-7.5-0.8-7.5-0.8l-7-3.9l-1.8-0.1l-3.4,2.2
		c0.4-0.1,6.4-2.5-4,2.8c-1.5,0.8-3,1.5-4.3,2c-2.1,4.2-2.8,1.2-5.3,2.5c-3.9,3.3-4,2.2-2.6,0.3c-2.7,0.7-4.1,0.8-4.1,0.8
		s0.4-0.8-7.6-1.2c-3.4-0.1-6.3-1.1-8.7-2.1c0,0-0.1,0.1-0.1,0.1c0,0,0-0.1,0.1-0.1c-0.5-0.2-1.1-0.5-1.6-0.7c0,0.1,0,0.1,0,0.2
		c-3.3-0.1-13.8-1.9-18.8-3.6c0.1-2.8-3.8,0.8-1.2-3.1c1-1.1,3.2-0.3,4.5,0.2c1.8,0,1.8,2,3.7,1.8c0.9,0.4,1.6,0.2,2.1,0
		c-2-1.1-4.5-2.5-6.9-3.4c-1-0.4-2.1-1.1-3.2-2c0.1,2.7-0.8,2.3-2.5,2c-1.8-1.5,0.6,2.2-1.2,0.1c-1.9-2.8-5.1-4.7-6.7-7.8
		c-1.8-4.7-5.1-8.1-6.3-12.8c-2.2-2.7-14.6-12.8-4.6-9.8l-1.6-3l-0.9-5.1l-0.6-3.9v-5.7l1.4-9.8l0.8-3.1c0-0.1,0-0.2,0-0.3
		c-0.5-1-1.1-1.7-1.7-2.1c0.8,1.1-1.4,3.1-1.2,1.1c-0.2,0.8,0.2,1.8-1.2,1.7c0.3,1.1-1.1,1.9-0.9,0.6c-0.2,0.7-0.6,0.7-0.3-0.3
		c-0.3-0.2-0.2,1.4-0.7,1c-0.1-1.2,0.1-1.6-0.4-0.2c-0.3-0.2-0.1-0.5,0-0.7c-0.1,0.1-0.2,0.2-0.4,0.4c0-0.1,0.1-0.2,0.1-0.3
		c-0.1,0.1-0.2,0.3-0.3,0.4c-0.3-0.2,0.2-0.8,0.4-1c0,0.1,0,0.1,0,0.2c0.3-1.2,0-0.5-0.7,0.5c-0.8-1.1,0.8-3.6-0.1-4.9
		c-0.5-1.6-1.6-4.1-1.9-3.9c1.2,2.3-1.8-0.7-0.7-0.4c0.2,0.3,1.2,0.4,0.8-0.2c-2.5-3.7-4.2-0.2-5.8-8.3c-0.3,1.1-1-0.7-1.2-1.3
		c-1.1,2.4-2.3-0.8-2.2-1.9c-0.2,0.2-0.2,0.4-0.2,0.6h0c0.1,0.1,0.1,0.1,0.2,0.2c-0.1,0-0.2-0.1-0.2-0.1c0,0.4,0.1,0.9,0.2,1.4
		c0.1-0.1,0.3-0.1,0.4,0.1c0,0-0.2,0.1-0.3,0.2c0,0,0,0,0,0c0.2,0.8,0.2,1.6-0.3,2.3c-0.5,0.5-0.7,0-0.3-0.6c-0.5,0.6-0.8,0.1-0.5-1
		c-0.3,0.8-0.5,3-0.9,1.3c-0.2,0.1-0.2,1.3-1.2,0.3c0.2,2-1.2-0.3-0.9-0.8c-0.4,0.3-0.2,1.3-0.1,1.6c0-0.1-0.1-0.4-0.3-0.8
		c0.1,1.1-0.3,0.3-0.4,0.9c-0.9-2.8,0-0.4-2.1,0c-2,0.3,0.3,4.8-2.3,3.9c1.3,2-2.6,0-2.1,1.8c-0.9,2.1-8.3,10.4-10.2,10.5
		c-1.3,4,1,5.3,0.4,8.3c-1.8,2.3,0.4,6.3-1.1,6.7c-1.1,0.1-1.8,2-1,2.8c-1.9-0.6-2,2.6-3.4,3.2c-4.3-1.4-2.9-5.4-3.7-5.5
		c-6-12.7-11.7-27.1-10.4-33.6c-1.8-0.5-1,0.4-1.9,1.2c2.4,2-3.7,4.4-4.6,1.5c-5.5-5.2,0.2-0.9,0.8-5.1c-0.8,2.2-6.7-0.2-4.1-2
		c-1.4,0.8-1,0.6-1.5,0.2c-2.3,0.3-3.7-6.4-5.6-4.5c-6.9,0.8-11.2,0.7-18.8-0.6c-5.1-8.8-3.9-0.3-10.1-3.5c-7.1-2.9-7.1-9.6-10-8.8
		c-1.7-1.6-1.4,0.9-3.1,0.2c1.3,0.9,0.1,2.8,1,4.2c1.2,1.7,1.5,3.1,3,3.6c1.5,0.4,6.5,2.3,1.8,4.2c1.3,0.6,3.3-2.8,4,1.4
		c-0.9,2-1.4,2.6,0.7,3.3c5.3-0.2,6.3-2,9.2-6.6c-1.7,8.2,10.2,6.7,8.3,12.9c-2.6,4.9-3.5,2-3.8,7.6c-2.5-0.5-1.7,3.2-3.9,2.9
		c-1.9-0.2-0.7,2.8-2.5,2.6c-3.4-0.7-5.3,2.4-6.7,4.2c-6.6,2.7-12.7,7.1-19.2,7.7c-1.3-4.4-1.7-7.4-2.3-11.4
		c-1.5-2.2-3.4-4.8-4.6-7.7c-0.9-1.9-4.2-2.4-4.1-5.2c0.2-5.3-3.9-7.1-5.6-11.4c-1.8-4.2-6-6.4-5.3-9.8c-2.9-7.1,0.2-6.9-0.7-13.4
		c1.1-2.5,2.4-2.2,1.6-5.5c0.7,0.1-0.9-1.1,0.1-1.7c0.6-0.3,0.2-1.4-0.3-1c-0.8,0.4-0.3,0.7-1.1,0.9c-4.5-1-3.5,3.8-9.6-0.8
		c-5.2,4.8-3.3-1.5-6.7,0.8c0.5-1.1-0.6-0.2-1.5-0.3c2.6-0.5,1.6-1.5-0.3-0.8c1.3-1.8-1-0.3-0.3-2.7c-1.3-0.9-2.1-0.2-2-1.9
		c0.4,0.4,2.7,1.5,0.8-0.1c1.3-0.7-1.1-1.4,0.3-2.3c-2.8,0.8-2-2.2,0.1-2.4c1-0.1,4.7,0.5,3.9-0.3c0.3-0.7,1.6-0.5,2.1-0.6
		c-5-1.9,3.2-0.3,4.2-2.1c7.4-4.8,13,5.4,20.9,0c2.2-0.1,4.6-0.2,5.1,2.6c1.7,2.1,6,7,9.1,2.4c2.7-0.5,0.2,2.4,1.8,2.8
		c3.1,3.8,7.6,6.6,13.1,4.8c-0.1-0.7-0.6-4.7-1.5-6.2c-0.2-0.3-2.1-0.6-1.1-1.4c0.5,0.6,0.6,0.4,0.3-0.5c-2.4-0.7-1.6-1.1-2-3.6
		c0.6,1.1,2.3,1.2,3.4,1c-0.6,0-0.3-1.1,0-0.3c0.9,0.2,0.3-0.8,0.6-0.6c-2-2.2-5.6-5.1-4.1-0.1c-1.2-1-1.4-3.5-1-3.9
		c-0.5-1-2.8-0.7-3.3-1.9c-0.2-1.7-2.8-2.3-2.8-3.4c5,0.6-0.7-0.5,2.6-2.3c3.4,1.8,3.1-4.7,0.7-4c14.6-6-3.9-65.6,12.7-55
		c0.6-1.7-3-3.1-4.4-2.9c-1.3-0.6,0.8-1.1-0.3-1.5c0.2-1.3-1.8-1.2-1.5-1.8c3.1-3.6-0.1-5,7-4.1c1.4,0.2,2,2.4,0.7,2.9
		c2.5,1.1,3.2,2.9,4.1,5.3c2.3,1.7,3.8,2.9,1.5,4.9c-0.8,2.8-0.8,0.6-4.8,0.8c3.2,1.9,7.6,1.8,8.7-1.8c1.4-1-1.3-1.5-1.2-2.5
		c0.6-1,3.2-1.2,4.2-0.1c1.6,1.6,3.7,3.5,4.4,2.4c-3.2,0.3-1.5-2-3.7-3c-10.8-1.3-4.5,0.1-10.6-6.3c0.6-1.3,3.3-1.1,0.6-2.7
		c1.8-0.8,2.8,2.7,2.7,3.1c2.4,0.4,9.6,2.4,4.7,0.2c-8.9-1.4,2.9-0.8-2-1.9c2.2-1.8,10.9,3.1,8,0.1c-2.4-0.1-3.9-1.8-5.2-2.6
		c1.5-1.9,15.2-0.1,7.7-2.3c1.1-0.2,2.7,0.1-0.6-0.6c3.1-1.6,12.8-4.3,14.6-2.7c2.2-0.4,1.8-0.9,4.7-0.3c-3.9-1.2-0.8-0.9,1.5-0.9
		c-4.4-1.4,1.7-3.6,5.3-1.8c-5.7,0.5,3.7,0.7,3.9,1.7c6-1.2,8.6-0.2,12.2,2c-0.2,0-0.5-0.1-0.6-0.1c0.5,0.2,0.9,0.5,1.1,1
		c-1.4,1.2-2.7,1.5-4.1,1.9c2.1,0.4-2.3,1.3-2.6,2.1c-3.8,2.2,4.2-0.2,6.1-0.7c-4.5,0-0.5-1.4,1.5,0c2.9-0.1,11.9,0.1,14.6,1.5
		c1.8-0.1,5.2,0.9,5.7-0.4c-0.9-0.1-1.9-1.2-0.6-1c0.4-0.1,1.9,0.1,3.3,0.3c-0.1-0.1-0.2-0.2-0.2-0.3c0.1,0.1,0.2,0.2,0.3,0.3
		c1.1,0.1,2.2,0.2,2.6,0c1.9,0.4,2.9,0.7,3.9,1.3c0.2,0,0.3,0,0.5,0.1c-0.1,0-0.3,0-0.4-0.1c0.8,0.5,1.6,1,3,1.8
		c-3.9,0.1-0.2,0.7,1,0.9c-0.7-0.1-1.1,0.2-0.3,0.3c2.1,0.8,7.9,3.7,5-0.3c0.9-0.9,4.4,1.8,5.2,0.5c2.7-1,6,1.6,6.1,0.4
		c-3.2-1.3,5.4,0.4-0.1-1.4c2-0.6-1.4-0.2-1.1-1.2c0.8-0.1,3,0.1,1.4-0.6c-1.5-0.4,11.4,0.3,10.2,1c2,0.7,0.3,0.8-0.8,0.2
		c1.3,0.8,0.9,0.7-0.4,0.6c2,1.3,4.7-2.3,8.1-0.2c1.6,0.8-3.3,0.4,2.4,1.2c2.9,1,6.6,1.7,11.9,0.9c7.5,1,12.4,4.3,20.5,3.6
		c3.4-0.4,15.4,3.5,6.9-0.2c4.7-3.2,26.6,2.3,36.1,7.1c1.6,0.8,3.7,0.8,0.8,0c-1.4-1.7-3.3-1.1,0.5-1.1c-0.7,0.7,3.1,0.3,0.3,0
		c2.6-0.1,5.4,1.4,7.5,1.8c1,0.4,1.8,1.8,0.3,1.4c1.6,0.6-1.3,0.2-3,0c2.2,0.8,3.9,1.1,2.5,2.2C610.4,58.4,613.5,59.7,611,59.3z"/>
</g>
<g id="Layer_6">
	<path class="st7" d="M284.7,22.8c-2.2,6.7,0.2,5.3-2.8,6.7c-2.3,1.7,4.2,3.7-0.5,2.7c0.3,5-3.3,5.2-4.1,9.6
		c-1.7,3.9,2.4,4.2-2.7,7.1c6.4,0.8-8,8-9.4,10.3c-8.7,0.2-16.9,9.9-25,13.3c-1.5,8.6-3.6,9.8-6.8,11.5c-0.7,11.9-5.8,11.6-10.8,7.5
		c-3.9,1.2-4-13.7-4.8-18.7c-0.7-13.8,4.9-13.5,8.4-22.6c-8.2-3.5-0.4-1.9-4.5-5.1c5-32.1-9-7.9-15.7-22.9c1.8-2.2,3.6-4.1,5.6-5.8
		h-0.7c0,0-3.5,1.2-3.7,1.2c-0.2,0-3.4,0.8-3.5,0.8c-0.1,0.1-2.5,1.7-2.5,1.7l-2.1,1.7l-1.2,1.1l-0.6,0.5c0,0-0.5,0.2-0.9,0
		c-0.3-0.2-4-0.2-4.2-0.2s-0.7,0.6-0.7,0.6s-1.4,0.4-1.5,0.5c-0.1,0.2-0.5,0-0.7,0c-0.2,0-2.6,0.4-2.6,0.4l0.5,1v0c0,0,0,0,0,0
		c0,0,0.1,0,0.2,0.1c0.1,0,0.2,0.1,0.3,0.1c2.3,1,5.9,2.3,8.9,4.4c0,0,0,0,0.1,0c0,0,0,0,0.1,0.1c0.1,0.1,0.3,0.2,0.5,0.3
		c0,0,0,0,0.1,0.1c1,0.7,3,2.1,3,2.1l1.2,1.2l0.4,2.6l0.9,2.8v4.7l-2.3,3.2l0.8,1.1l-1.5,0.7l-0.6,0.7l-1,1l-0.9,0.3l-1,0.2
		c0,0,0,0,0,0c-0.6,0.3-1.4,0.4-2.1,0.4c0,0,0,0,0,0l-1.5,0.3l-1.2-0.3l-1.1-0.3c0,0-1.3-0.2-1.6-0.4c-0.4-0.3-1.7-0.7-1.7-0.7
		l-1.4-1l-1.8-0.8c-2.8-1.2-5.5-2.4-7.6-2.9c0.1,0,0.2-0.1,0.2-0.1h0l-1.8-1.3l-3.6-1.8l-4.5,0.5c-0.6,0.3-1.3,0.5-1.9,0.7l-0.1,0.8
		l-1.9,1.1l-1.2,0.6c0,0-2.9,0.6-3.2,0.7c-0.3,0-0.4,0.2-0.4,0.2l-0.9,2.1c0,0-2.5,0.2-2.8,0.3c-0.3,0.1-1.4,0.6-1.4,0.6
		s-2.8,2.3-3,2.4c-0.2,0.1-0.2,0.3-0.2,0.3l-0.8,0.6l-0.6-0.1c0,0,0,0-0.7,0c-0.1,0-0.2,0-0.4,0.1l-2,1.8l-1.7,1.8l-2.1,1.3
		l-2.4,3.5l0.2,2.3h1l1.6,1.8l2.8-0.6l1.5,2l0,0l0,0l1.7,0.4l0.7,1c0.5,0.4,0.9,0.8,1.2,1.2c1.1,1.3,1.5,2.8,1.5,4.2l0.2,0.6
		c0,0,0.7-0.1,0.8,0.2c0.1,0.4,0,1.2,0,1.2l0.3,0.5l1.3-0.2l1-1c0,0,0.7-1.7,1.2-1.7c0.4-0.1,0.8-0.3,0.8-0.3l0.8-1.3l2-1.3l0.8-1.6
		l5.1-1.1h0l0,0l1.9-1.9l-1.5-1.1l0.1-1.7l-0.1-1.9l1-1.9c0,0,0.4-1.1,1-1c0.6,0.1,0.7-0.1,1-0.4c0.3-0.3,0.8-2.5,0.8-2.5
		s0.8-1.4,0.8-1.6c0-0.2,1.8-2.1,2.5-2.1c0.7,0,2.9-1.8,3.2-1.8c0.4-0.1,2.2,1.6,2.2,1.6s0,0,0,0c0.5,0.1,8.2,1.9,8.5,2
		c0.4,0.1,1.7,3.4,1.7,3.4l-1.7,1.4l-0.3,0.7l0.2,0.5l1,0.2l1.1-0.6c0,0,0.2-0.6,0.8-0.8c0.6-0.1,0.3,0,0.6-0.1
		c0.3-0.1,0.8-0.5,1.4-0.7c0.6-0.2,0,0.1,0.6-0.2c0.6-0.3-0.2-0.8,0.6-0.3c0.7,0.5,0.5-0.1,1.2,0c0.6-0.5,0.8-0.3,0.8,0.2
		c0,0,0,0,0,0s1.3,1.6,1.3,2.2c0,0.6,0.1,2.7,0.1,2.7l0.8,0.6l-0.3,0.9c0,0,0.5,0.9,0.3,1.4c-0.2,0.6-1.9,2.3-1.8,2.6c0,0,0,0,0,0.1
		c0.2,0.2,1,0.6,1.1,0.7c0,0,0,0,0,0c0.2,0.1,0.5,0.1,0.7,0.1c0,0.2,0,0.4-0.1,0.5c0.2,0.2,0.5,0.4,0.6,0.4c0.2,0,1.4-0.4,1.3,0.4
		c0,0.3,0,0.6,0,0.8c0.3,0.1,0.7,0.3,0.9,0.5l1.4-0.9l0.5,3.3c0.1,0,0.2,0.1,0.5,0.2c0.8,0.4,0.5,2.3,0.6,2.4
		c-0.1,0-0.4,0.2-0.7,0.4c0.1,0.9-0.7,1.7-2,2.5L200,80l-2,0.3l-4.1,1l-0.1,0l-2.6,2l-2.5-0.2l-3.3,0.3c0,0-0.9,0.4-1,0.7
		c0,0.2-2.5,1.4-2.5,1.4l-0.9-0.6l-0.3,0.6c0,0,0.1,0.1,0.2,0.3c0.5,0.1,0.7,0.5,0.2,1.2c-0.4,0.5-0.4,0.5-0.4,0.5l-0.2,0.7
		l-0.1,0.5v0.5c0,0-0.1,1.1-0.4,1c-0.4,0-0.7,0.3,0,0.9c0.7,0.6,0.1,1.7,0,1.8c-0.1,0.2-0.1,1.3-0.1,1.3h1.7l2.1-0.9
		c0,0,0.6-0.1,0.9-0.2c0.4-0.1,1-0.3,1-0.3l1.2-0.9l1.5,1.2l0.2,1.9l-4,1.5l-0.5,0.2l-0.3,1.4l-5.6,0.7l0,1.6l-2.5-0.3l0,0
		c-1.1,0.5-1.8,0.6-2,0.5l-1.7,0.4l2.1-3.1l-1.1,0.1l-1.2,0.6l-1.4-0.1c-0.9,0.4-1.7,0.7-2.5,1.1l-1,2.1l-1.3,0.3l-0.9,1.1
		c-0.4,0.5-0.4,0.5-0.4,0.5h-1.1l0.2,0.9l-0.5,1.1c0,0,0.1,0,0.1,0.1c-0.1,0-0.1,0-0.2,0.1l-0.4,0.9l-3.3,2.1l-7.9,3.6l0.3,3.1
		c0,0-3,0.4-3.5,0.7c0,0,0,0.1-0.1,0.1v0c0.2,0.4-0.5,2.7-0.5,2.7s-0.4,0.1-0.6,0.5c-0.2,0.5-0.9,2.6-0.9,2.6s0,3.4-0.4,3.7
		c-0.4,0.4-1.8,0-1.8,0s-2.4-0.2-2.9,0.8c-0.5,1-0.5,1-0.5,1l-2.8-0.9l0,0l-2.8,2.5l0,0c0,0,0.3,2,0.3,2.2c0.1,0.2-0.9,0.9-0.9,0.9
		s-0.8,1.4-1.3,2.1c-0.4,0.7-0.8,1.3-0.8,1.3s-0.3,0.1-0.3,0.4c0,0.3-0.2,0.5-0.4,1.9c-0.2,1.4-0.1,1-0.2,1.4c0,0.5,0.6-0.4,0,0.5
		c-0.7,0.9-0.6,1-1.2,1.8c-0.6,0.9-0.6,0.5-0.6,0.9c0,0.4,0,0.8,0,0.8l-0.6,2.8c-0.4,0.3,0.9,4,0.9,4l-3.6,1.3l-1.5-2.4l-1.3-2.7
		v-3.3l-0.6-1.8l-5.9-2.4l-3.6-1.1l-2.4,0.1v1.1c0,0-0.2,0.2-0.5,0.6c-0.3,0.4-0.7,1.2-0.7,1.2c0.3,0.3,0.3,0.5,0,0.7c0,0,0,0,0,0h0
		c-0.1,0.1-0.3,0.2-0.6,0.3c-0.1-0.1-0.2-0.3-0.4-0.4c-1-0.2-2.2-0.4-2.2-0.4s0-0.4-0.8-0.4c-0.8-0.1-2.2-1-2.9-1
		c-0.7,0-1.8-0.4-3.6,0c0,0,0,0,0,0c-2,0.9-4,2.4-5.8,4.3c0,0,0,0,0,0c-0.6,1.2-0.5,0.9-0.8,1.5c-0.3,0.6-0.8,2-0.8,2
		s0.2,0.3-0.3,1.1c-0.4,0.8-0.6,1.2-0.6,1.2s-0.6,0.5-2.8,3.6c-0.4,0.6-0.7,1-1,1.4c-0.7,2.2-1,4.4-0.9,6.5c0,0,0,0,0,0
		c0.2,1.4,1.7,2.9,1.8,3.5c0.1,0.6,0.2-0.7,0.1,0.6c-0.1,1.3,0.7,1.6,0.7,1.6s0,0.3,0.6,1.1c0.4,0.4,0.9,0.7,1.4,1h0
		c0.4,0.3,0.9,0.5,1.4,0.7c0.6-0.1,0.4-0.4,0.9,0c0.5,0.5,0.4,0.2,0.7,0.4c0.3,0.2,1.1,0,1.1,0l3.4-1.1l1.3-0.2l1.2-1.7
		c0.5-0.2,2-1.4,2-1.4l0.8-2l1.3-0.8l1.8-0.8l0.4-0.2c0,0,0,0,0,0c1-0.4,1.7-0.2,2,0.7c0.2,0.2,1.4,1.5,1.6,1.7
		c0.2,0.2,0.3,1.5-0.6,3.7c-0.8,2.2-0.6,1.7-1.1,2.8c-0.5,1.1-1.9,2.2-2,2.3c0,0.1,0,0.1-0.1,0.2v0c0.5,0.5-0.3,2.8-0.7,2.9
		c-0.4,0.1-0.8,0.2-0.8,0.2l1.3,1c0.6-0.1,1.2-0.5,1.2-0.5l1.8,0.5l1.4,0.7c2.7-0.1,5.3,0.1,5.4,1.9c-7,30.2,17.6,7,11.8,21.9
		c-3-4.2,2.3-1.8-2.8-4.9c-6.3,3.9,1,6.8-8.6,2c-0.6,1.9-0.4-1.4-1.6-1.1c1.2,2.9-3.6-5.7-3.8-3.8c2.1,1.9-1.9,1-1.5-0.8
		c2.6-1.9-5.3-7-2.8-7.1c-0.6-2.9-2.7,0.8-6.4-2.3c-3.6,0.6-9.3-8.1-8.4-6.2c-7.3,1.5-14.2-2.4-21.4-6.7c-6.7-5.3-0.6-16.3-9.8-20.1
		c2.2-4-3.5-4.9-3.8-10.1c0-10.1-7.7-6.7-2.6,1.8c10.5,31.4-5.4,4.2-5.4-10.6c-4.3-8-7.6-9.7-5.7-14.7c-3.6-11,10-19.9,12.5-29.6
		c11.3-0.1-3.8-3.8-0.2-10.7c1.5-1.9-4-0.2,0-4.5c2,1.1,0.5-1.2,1.6-1.5c-0.5-0.3-1.6-1.2-1.3-1.7c4-5.5-3.8-5.7-6-10.3
		c-10.5-2.9-6.4-4.6-22.5,1.2c1.7-2.5,6.8-4.5,8.5-5.1c-1,0.3-3.4,1-8,2.2c-1.7,4-19.5,9.3-27.8,11.6c2.8-1.5,17.6-7.4,16.1-8
		c-5.6,2.2,0.7-2.5-5,1.2c1.9-3.4-7,0.7-4-1.1c0.6-1.3,4.3-4.2,5-4.9c-6,4.6-9.7,0.2-2.1-0.4c-8.5-3.9,12.8-4.8,17.6-10
		c-19.9,4-3.7-6.7,2.4-2.7c3.3-1.1,0.9,0.2,1.1-1.8c1.5-0.8-0.7,1.4,1.3,0.8c4.8,0.3-3-0.2,0.8-1.1c-5.3-0.3-0.6-0.5-3.6-2.9
		c10-4.5,25.2-7.3,28.6-6.7c4.1,0.8,25.6,5.1,27.9,4.1c4.8-1.7,2.4-0.2,1,0.5c7.9-3.8,39-1.6,29.6,2.7c3.1,1.2,14.6-1.2,10.7,2.2
		c-0.7,2.1,2.2-1.8,6-3.4c-4.9,1.1-4-0.9,2.4-1.2c-0.7,4.1,9.3,1.9,12.4,2.9c0.1-1.5-3.2-0.3,0.6-2c7.3,3.8,8.5-1.6,1-8.9
		c2.2-3.3,1.7,0.9,6.3-1.8c-4.6-1,4.5-0.5,0.7-6c-1.4-0.5,1.2-0.7,1.3-2c-1.4-1.8,1.6-1.6,2.6-3.1c6.3,0.2,1.4-1.4,3.9-1.7v-0.5
		c0,0,0,0,1.5-0.1c1.5-0.1,3.7-0.4,3.7-0.4l4.8-0.7l3.2-0.5l2.4-0.1l10.4-2.3l8-0.9c0,0,1.3-0.2,4.7-1.2c3.4-1,3.7,0.8,4.9,0.6
		c0.2,0,0.3,0,0.4-0.1c0.9-0.1,1.1-0.2,2.3-0.6c1.3-0.5,3.7-0.8,3.9-0.8c0.1,0,0.9,0.3,1.8,0.5c1.6-0.1,3-0.2,4-0.1
		c0.5-0.1,0.8-0.2,0.8-0.2s0.3,0,1.8,0.5c1.5,0.5,1,0.5,1.5,0.5c0.2,0,0.5,0.1,0.9,0.2c16.7-7.3,36.1-5.6,55.2-5.8
		c-11.5,0.8,8.6-0.5,4.4,2.3c-3.6,7.4,2.4,2,4.8,5.6c-3.9,4.9-0.2,3.3-4.2,6.8C290.4,20.1,289,20.1,284.7,22.8z"/>
</g>
</svg>
