<svg xmlns="http://www.w3.org/2000/svg" viewBox="0 0 117.9 24.45">
    <style>
        .cls-1 {fill: #46c5e0;}
        .cls-2 {fill: #fff;}
    </style>
    <g>
        <rect class="cls-1" width="117.9" height="24.45" rx="12.22" />
        <path class="cls-2"
            d="M15.1,5.72h4.25a5.31,5.31,0,0,1,3.55,1.1,3.8,3.8,0,0,1,1.29,3,3.88,3.88,0,0,1-.56,2.06A4.15,4.15,0,0,1,22,13.4l3.49,5.33h-3l-2.81-4.67-.49,0H17.61v4.64H15.1ZM17.61,12H18.9c1.81,0,2.71-.7,2.71-2.1A1.81,1.81,0,0,0,21,8.35a3.14,3.14,0,0,0-2-.53H17.61Z" />
        <path class="cls-2" d="M27.5,5.72h8.65V7.91h-6.1V11h5.39V13.2H30.05v3.34h6.34v2.19H27.5Z" />
        <path class="cls-2" d="M39.08,5.72h2.63V16.57h5.93v2.16H39.08Z" />
        <path class="cls-2" d="M49.81,5.72h2.64v13H49.81Z" />
        <path class="cls-2"
            d="M62,18.92a8.4,8.4,0,0,1-3.71-.79,5.87,5.87,0,0,1-2.52-2.28,6.59,6.59,0,0,1-.9-3.49,6.94,6.94,0,0,1,.89-3.54A6.23,6.23,0,0,1,58.35,6.4a8.39,8.39,0,0,1,3.92-.87,10.48,10.48,0,0,1,2.36.27,8.58,8.58,0,0,1,2.12.76l-.43,2.26a8.54,8.54,0,0,0-2-.71,9.39,9.39,0,0,0-2.17-.25,5.21,5.21,0,0,0-2.38.53,3.82,3.82,0,0,0-1.63,1.53,4.57,4.57,0,0,0-.59,2.34,4.17,4.17,0,0,0,1.24,3.2,4.67,4.67,0,0,0,3.36,1.16,9.83,9.83,0,0,0,2.42-.32V13.52H62V11.44H67V18A12.57,12.57,0,0,1,62,18.92Z" />
        <path class="cls-2" d="M69.78,5.72h2.63v13H69.78Z" />
        <path class="cls-2"
            d="M81.75,19a7.2,7.2,0,0,1-3.46-.84,6.57,6.57,0,0,1-2.51-2.4,6.73,6.73,0,0,1-.94-3.54,6.74,6.74,0,0,1,.87-3.37,6.55,6.55,0,0,1,2.46-2.47,7,7,0,0,1,3.58-.94,7.23,7.23,0,0,1,3.48.85,6.57,6.57,0,0,1,2.51,2.4,6.72,6.72,0,0,1,.94,3.53,6.78,6.78,0,0,1-.87,3.38,6.58,6.58,0,0,1-2.47,2.47A7,7,0,0,1,81.75,19Zm0-2.32a4.28,4.28,0,0,0,2.13-.55,4,4,0,0,0,1.52-1.58A4.81,4.81,0,0,0,86,12.22,4.89,4.89,0,0,0,85.44,10a4,4,0,0,0-3.69-2.21,4.21,4.21,0,0,0-2.12.55,4,4,0,0,0-1.5,1.57,4.7,4.7,0,0,0-.56,2.33,4.93,4.93,0,0,0,.51,2.25,4.1,4.1,0,0,0,1.48,1.61A4,4,0,0,0,81.75,16.68Z" />
        <path class="cls-2" d="M91.11,5.72h2.34l6.86,9v-9h2.5v13h-2.35l-6.85-9v9h-2.5Z" />
    </g>
</svg>