<svg xmlns="http://www.w3.org/2000/svg" viewBox="0 0 105.57 24.45">
    <style>
        .cls-1 {fill: #8bc648; }
        .cls-2 {fill: #fff; }
    </style>
    <g>
        <rect class="cls-1" width="105.57" height="24.45" rx="12.22" />
        <path class="cls-2"
            d="M17.58,19a10.41,10.41,0,0,1-2.46-.3,6,6,0,0,1-1.95-.78l.26-2.24a7,7,0,0,0,1.93.84,7.66,7.66,0,0,0,2.12.31,3.25,3.25,0,0,0,1.83-.44A1.4,1.4,0,0,0,20,15.17a1.28,1.28,0,0,0-.54-1.08,7.78,7.78,0,0,0-2.06-.89,7.52,7.52,0,0,1-3-1.59,3.34,3.34,0,0,1-.92-2.45A3.39,3.39,0,0,1,14,7.23a3.7,3.7,0,0,1,1.63-1.31,6.06,6.06,0,0,1,2.5-.48,8.76,8.76,0,0,1,2.07.26A7.5,7.5,0,0,1,22,6.4l-.36,2.18A7.13,7.13,0,0,0,20,7.88a6.84,6.84,0,0,0-1.78-.26A2.94,2.94,0,0,0,16.5,8a1.3,1.3,0,0,0-.56,1.13,1.29,1.29,0,0,0,.22.76,1.81,1.81,0,0,0,.71.54,9.83,9.83,0,0,0,1.4.53,8.52,8.52,0,0,1,3.32,1.69,3.27,3.27,0,0,1,1,2.47A3.41,3.41,0,0,1,21.24,18,5.83,5.83,0,0,1,17.58,19Z" />
        <path class="cls-2"
            d="M31.33,18.92a7.82,7.82,0,0,1-3.6-.8,6,6,0,0,1-2.47-2.3,6.86,6.86,0,0,1-.89-3.53,6.86,6.86,0,0,1,.87-3.45,6.24,6.24,0,0,1,2.49-2.42,7.66,7.66,0,0,1,3.74-.89,8.75,8.75,0,0,1,2.18.28,7,7,0,0,1,1.9.76l-.43,2.21a8.26,8.26,0,0,0-3.62-.92,4.78,4.78,0,0,0-2.27.53,3.83,3.83,0,0,0-1.57,1.52,4.6,4.6,0,0,0-.57,2.33,4.2,4.2,0,0,0,1.21,3.18,4.47,4.47,0,0,0,3.25,1.17,8,8,0,0,0,1.92-.26,9,9,0,0,0,1.91-.72l.27,2.26a7.58,7.58,0,0,1-2,.77A9.48,9.48,0,0,1,31.33,18.92Z" />
        <path class="cls-2" d="M38.2,5.72h2.64v13H38.2Z" />
        <path class="cls-2" d="M44,5.72h8.65V7.91h-6.1V11h5.4V13.2h-5.4v3.34h6.34v2.19H44Z" />
        <path class="cls-2" d="M55.55,5.72h2.34l6.86,9v-9h2.5v13H64.91l-6.86-9v9h-2.5Z" />
        <path class="cls-2"
            d="M76.64,18.92a7.82,7.82,0,0,1-3.6-.8,6,6,0,0,1-2.47-2.3,6.86,6.86,0,0,1-.89-3.53,6.86,6.86,0,0,1,.87-3.45A6.24,6.24,0,0,1,73,6.42a7.66,7.66,0,0,1,3.74-.89A8.68,8.68,0,0,1,79,5.81a7,7,0,0,1,1.91.76l-.43,2.21a8.26,8.26,0,0,0-3.62-.92,4.78,4.78,0,0,0-2.27.53A3.83,3.83,0,0,0,73,9.91a4.6,4.6,0,0,0-.57,2.33,4.2,4.2,0,0,0,1.21,3.18,4.47,4.47,0,0,0,3.25,1.17,7.81,7.81,0,0,0,1.91-.26,8.83,8.83,0,0,0,1.92-.72L81,17.87a7.71,7.71,0,0,1-2,.77A9.48,9.48,0,0,1,76.64,18.92Z" />
        <path class="cls-2" d="M83.51,5.72h8.65V7.91h-6.1V11h5.39V13.2H86.06v3.34H92.4v2.19H83.51Z" />
    </g>
</svg>