<?xml version="1.0" encoding="utf-8"?>
<!-- Generator: Adobe Illustrator 24.3.0, SVG Export Plug-In . SVG Version: 6.00 Build 0)  -->
<svg version="1.1" id="Layer_1" xmlns="http://www.w3.org/2000/svg" xmlns:xlink="http://www.w3.org/1999/xlink" x="0px" y="0px"
	 viewBox="0 0 84.89 24.45" style="enable-background:new 0 0 84.89 24.45;" xml:space="preserve">
<style>
	.st0{fill:#923895;}
	.st1{fill:#FFFFFF;}
</style>
<g>
	<g>
		<path class="st0" d="M72.67,24.45H11.81c-6.75,0-12.22-5.47-12.22-12.22l0,0C-0.42,5.47,5.05,0,11.81,0h60.86
			c6.75,0,12.22,5.47,12.22,12.22l0,0C84.89,18.97,79.42,24.45,72.67,24.45z"/>
		<g>
			<g>
				<g>
					<path class="st1" d="M20.21,7.88h-4.2V5.72h11.04v2.16h-4.2v10.85h-2.64V7.88z"/>
					<path class="st1" d="M34.82,19c-1.26,0-2.42-0.28-3.46-0.85c-1.05-0.57-1.88-1.36-2.51-2.4s-0.94-2.21-0.94-3.54
						c0-1.22,0.29-2.35,0.87-3.37c0.58-1.03,1.4-1.85,2.46-2.47s2.25-0.93,3.58-0.93c1.27,0,2.43,0.28,3.48,0.85
						c1.04,0.57,1.88,1.36,2.51,2.4c0.63,1.03,0.94,2.21,0.94,3.54c0,1.22-0.29,2.34-0.87,3.37c-0.58,1.03-1.4,1.85-2.46,2.47
						S36.15,19,34.82,19z M34.82,16.68c0.78,0,1.49-0.18,2.13-0.55c0.64-0.37,1.14-0.89,1.52-1.58c0.37-0.68,0.56-1.46,0.56-2.33
						c0-0.82-0.17-1.57-0.52-2.24c-0.34-0.67-0.84-1.21-1.48-1.61c-0.64-0.4-1.38-0.6-2.21-0.6c-0.78,0-1.49,0.18-2.12,0.55
						c-0.63,0.37-1.13,0.89-1.51,1.57c-0.37,0.68-0.56,1.46-0.56,2.34c0,0.82,0.17,1.57,0.52,2.24c0.34,0.67,0.84,1.21,1.47,1.61
						C33.26,16.48,33.99,16.68,34.82,16.68z"/>
					<path class="st1" d="M50.55,19c-1.26,0-2.42-0.28-3.46-0.85c-1.05-0.57-1.88-1.36-2.51-2.4s-0.94-2.21-0.94-3.54
						c0-1.22,0.29-2.35,0.87-3.37c0.58-1.03,1.4-1.85,2.46-2.47c1.06-0.62,2.25-0.93,3.58-0.93c1.27,0,2.43,0.28,3.48,0.85
						c1.04,0.57,1.88,1.36,2.51,2.4c0.63,1.03,0.94,2.21,0.94,3.54c0,1.22-0.29,2.34-0.87,3.37c-0.58,1.03-1.4,1.85-2.46,2.47
						S51.88,19,50.55,19z M50.55,16.68c0.78,0,1.49-0.18,2.13-0.55c0.64-0.37,1.14-0.89,1.52-1.58c0.37-0.68,0.56-1.46,0.56-2.33
						c0-0.82-0.17-1.57-0.52-2.24c-0.34-0.67-0.84-1.21-1.48-1.61c-0.64-0.4-1.38-0.6-2.21-0.6c-0.78,0-1.49,0.18-2.12,0.55
						c-0.63,0.37-1.13,0.89-1.51,1.57c-0.37,0.68-0.56,1.46-0.56,2.34c0,0.82,0.17,1.57,0.52,2.24c0.34,0.67,0.84,1.21,1.47,1.61
						C48.99,16.48,49.72,16.68,50.55,16.68z"/>
					<path class="st1" d="M59.9,5.72h2.64v10.85h5.93v2.16H59.9V5.72z"/>
				</g>
			</g>
		</g>
	</g>
</g>
</svg>
