<svg xmlns="http://www.w3.org/2000/svg" viewBox="0 0 89.78 24.45">
    <style>
        .cls-1 {fill: #71c599;}
        .cls-2 {fill: #fff;}
    </style>
    <g id="Filter_Overlay" data-name="Filter Overlay">
        <rect class="cls-1" width="89.78" height="24.45" rx="12.22" />
        <path class="cls-2" d="M17.53,7.87h-4.2V5.72h11V7.87h-4.2V18.73H17.53Z" />
        <path class="cls-2"
            d="M26.54,5.72H30.8a5.33,5.33,0,0,1,3.55,1.1,3.8,3.8,0,0,1,1.29,3,3.8,3.8,0,0,1-.57,2.06,4.18,4.18,0,0,1-1.62,1.49L37,18.73H34l-2.8-4.67-.49,0H29.06v4.64H26.54ZM29.06,12h1.29q2.7,0,2.7-2.1a1.83,1.83,0,0,0-.66-1.53,3.08,3.08,0,0,0-1.95-.53H29.06Z" />
        <path class="cls-2"
            d="M43,5.72h2.79l5.2,13H48.18l-1.24-3.42H41.67l-1.26,3.42H37.78Zm3.24,7.57L44.29,8.05l-1.91,5.24Z" />
        <path class="cls-2"
            d="M52.94,5.72h5a7.67,7.67,0,0,1,5.3,1.7,6.15,6.15,0,0,1,1.88,4.79A6.09,6.09,0,0,1,63.2,17a8,8,0,0,1-5.44,1.71H52.94Zm2.61,10.9h2.16c3.13,0,4.7-1.46,4.7-4.4s-1.56-4.4-4.68-4.4H55.55Z" />
        <path class="cls-2" d="M67.56,5.72h8.65V7.91h-6.1V11H75.5V13.2H70.11v3.34h6.34v2.19H67.56Z" />
    </g>
</svg>